<svg xmlns="http://www.w3.org/2000/svg" width="104.538" height="52" viewBox="0 0 104.538 52">
  <g id="payme" transform="translate(0.038 -0.159)">
    <g id="boundingbox" transform="translate(0.5 0.159)" fill="rgba(255,0,0,0.1)" stroke="red" stroke-width="1" stroke-dasharray="4 4" opacity="0">
      <rect width="104" height="52" stroke="none"/>
      <rect x="0.5" y="0.5" width="103" height="51" fill="none"/>
    </g>
    <g id="Group_18352" data-name="Group 18352" transform="translate(-54.914 -14.794)">
      <path id="Path_45788" data-name="Path 45788" d="M6783.214,1069.209a42.785,42.785,0,0,1-6.533.659c-6.8,0-8.212-3.691-8.212-8.847,0-5.022,1.183-8.982,8.212-8.982a35.207,35.207,0,0,1,6.53.633l-.268,2.468a39.677,39.677,0,0,0-6.26-.661c-3.873,0-4.391,2.2-4.391,6.542,0,4.332.61,6.407,4.391,6.407a46.419,46.419,0,0,0,6.251-.672Z" transform="translate(-6694.285 -1020)" fill="#004a2c"/>
      <path id="Path_45789" data-name="Path 45789" d="M6796.033,1052.26c4.022,0,6.418,1.6,6.418,4.671a4.056,4.056,0,0,1-1.726,3.7,3.943,3.943,0,0,1,2.4,3.819c0,3.99-2.925,5.25-6.618,5.25h-7.838V1052.26Zm-3.69,2.449v4.894h3.964c1.819,0,2.445-.713,2.445-2.674,0-1.769-.608-2.222-2.719-2.222Zm0,7.31v5.232h4.164c1.966,0,2.917-.514,2.917-2.808,0-2.407-1.8-2.424-3.12-2.424Z" transform="translate(-6696.478 -1020.024)" fill="#004a2c"/>
      <path id="Path_45790" data-name="Path 45790" d="M6812.511,1063.9v5.785h-3.766v-17.427h8.374c4.758,0,7.06,1.961,7.06,5.584,0,3.561-2.184,6.058-7.06,6.058Zm4.608-2.44c2.34,0,3.24-1.2,3.24-3.617,0-2.36-.772-3.144-3.24-3.144h-4.608v6.762Z" transform="translate(-6698.657 -1020.024)" fill="#004a2c"/>
      <path id="Path_45791" data-name="Path 45791" d="M6837.182,1052.27l6.539,17.424h-3.828l-1.654-4.329H6831l-1.63,4.329h-3.833l6.573-17.424Zm-2.565,3.157-2.657,7.5h5.318Z" transform="translate(-6700.48 -1020.025)" fill="#004a2c"/>
      <path id="Path_45792" data-name="Path 45792" d="M6854.978,1069.688h-3.765v-7.443l-7.008-9.984h4.155l4.725,6.907,4.657-6.907h4.179l-6.944,9.98Z" transform="translate(-6702.506 -1020.024)" fill="#004a2c"/>
      <path id="Path_45793" data-name="Path 45793" d="M6753.213,1069.382l.032.045.052.021a12.279,12.279,0,0,0,2.592.267,10.856,10.856,0,0,0,2.473-.267l.059-.011.028-.056A36.306,36.306,0,0,0,6764,1054.95a25.128,25.128,0,0,0,.284-2.8l-3.941.577a38.444,38.444,0,0,1-4.291,13.283l-.124.21-.121-.21a35.119,35.119,0,0,1-3.729-9.509c-.3-1.258-.553-2.977-.665-3.791l-4-.535a35.179,35.179,0,0,0,5.8,17.21" transform="translate(-6692 -1020.012)" fill="#004a2c" stroke="rgba(0,0,0,0)" stroke-width="1"/>
    </g>
  </g>
</svg>
