<svg width="148" height="40" viewBox="0 0 148 40" fill="none" xmlns="http://www.w3.org/2000/svg">
<path d="M28.4102 12.9154L24.6545 16.6867L24.4665 16.8721L23.2729 18.0707L22.3859 18.9647L21.1922 20.1634L21.0076 20.3488L20.4866 20.8719L20.302 21.0573L18.5412 22.8222L18.3565 23.0076C17.8444 23.5287 17.2616 23.9746 16.6254 24.332C16.3173 24.4979 15.999 24.6439 15.6724 24.7691C14.9443 25.0485 14.1784 25.2159 13.4005 25.2657C12.9226 25.3012 12.4423 25.2912 11.9662 25.236C10.9299 25.1083 9.93035 24.7703 9.02823 24.2426C8.62158 24.0264 8.24378 23.7594 7.90382 23.448L7.6829 23.2294L0.83425 16.3622L0.689166 16.2165C0.564229 16.0853 0.453683 15.941 0.359428 15.7861C0.122684 15.3853 -0.00151983 14.9276 1.40366e-05 14.4616C1.40366e-05 14.3855 1.40366e-05 14.3093 1.40366e-05 14.2365C0.00925829 14.1252 0.0257813 14.0145 0.0494752 13.9054C0.0494752 13.8623 0.0692594 13.8226 0.0758542 13.7829L0.0923408 13.7332C0.189148 13.4042 0.350597 13.098 0.567163 12.8326C0.62509 12.7599 0.686723 12.6903 0.751816 12.624L0.870522 12.5048L8.1874 5.20052L12.6026 0.770271C13.0742 0.299486 13.7055 0.024949 14.3701 0.00161857C15.0347 -0.0217119 15.6836 0.207885 16.1868 0.644449L28.4102 12.9154Z" fill="#005BAA"/>
<path d="M15.115 29.3856C14.5201 29.3832 13.9328 29.251 13.3938 28.9982L11.9924 27.5976L11.6627 27.2665L11.6066 27.2036L10.9471 26.5414L7.68604 23.2303L7.90696 23.4488C8.24497 23.7611 8.6218 24.0282 9.02807 24.2435C9.93019 24.7712 10.9298 25.1091 11.966 25.2368C12.4386 25.2948 12.9155 25.3081 13.3905 25.2765C14.1722 25.2245 14.9416 25.0537 15.6723 24.7699C16.0026 24.6408 16.3242 24.4904 16.6351 24.3196C17.2714 23.9622 17.8542 23.5163 18.3662 22.9952L18.5509 22.8098L20.2886 21.0582L20.4733 20.8728L20.9942 20.3496L21.1789 20.1642L22.3725 18.9656L23.2595 18.0716L24.4532 16.873L24.6411 16.6875L32.2053 9.07202L35.3411 5.70133V5.68146L35.5093 5.51591C35.9674 5.05672 36.5882 4.79883 37.2355 4.79883C37.8827 4.79883 38.5036 5.05672 38.9616 5.51591L40.6697 7.23105L40.7257 7.28734C40.3414 7.26893 39.9574 7.33029 39.5977 7.46759C39.238 7.60489 38.9103 7.81517 38.6352 8.08532L32.8747 13.7903L32.8153 13.8599L22.755 23.7931L19.0488 27.4354L19.0257 27.4652C19.0257 27.4652 18.9367 27.5678 18.8015 27.7002C18.2977 28.1946 17.7176 28.6039 17.0836 28.9121C16.7269 29.0822 16.3518 29.21 15.9657 29.2929C15.7482 29.3365 15.5278 29.3641 15.3063 29.3757L15.115 29.3856Z" fill="#ED1C24"/>
<path d="M49.9388 19.985L49.7541 20.1737L41.5601 28.5276L32.9573 37.2987C32.6864 37.5687 32.3966 37.8188 32.0901 38.047L32.0571 38.0768L31.9318 38.1662C30.4315 39.241 28.6053 39.7574 26.767 39.6269C24.9287 39.4964 23.1931 38.727 21.8583 37.451L21.6671 37.2789L20.1865 35.7922L16.0022 31.6235L14.614 30.2328L14.4194 30.0375C14.6452 30.0732 14.8734 30.0909 15.102 30.0905H15.2932C15.5593 30.0818 15.8241 30.0496 16.0846 29.9945C16.527 29.9024 16.9566 29.7568 17.364 29.5607C18.0707 29.2195 18.7177 28.7655 19.2798 28.2164C19.4051 28.0939 19.5007 27.9879 19.5403 27.9416L22.7387 24.7861L33.7355 13.9224L33.7948 13.8496L39.1366 8.57167C39.4848 8.2311 39.9395 8.02171 40.4237 7.97888C40.908 7.93605 41.3921 8.0624 41.7942 8.33658L43.0604 9.60804L49.9256 16.505C49.9881 16.5639 50.0465 16.6269 50.1003 16.6938C50.485 17.1647 50.6815 17.7624 50.6517 18.3707C50.6218 18.979 50.3677 19.5544 49.9388 19.985Z" fill="#ED1C24"/>
<path d="M23.3983 10.8409C23.3044 10.9343 23.1776 10.9868 23.0455 10.9868C22.9133 10.9868 22.7865 10.9343 22.6927 10.8409C21.1184 9.34548 19.0266 8.52356 16.8597 8.54903C14.6927 8.5745 12.6207 9.44535 11.0817 10.9774C9.54272 12.5094 8.65755 14.5825 8.61342 16.7581C8.56928 18.9338 9.36963 21.0413 10.8452 22.635L13.3842 25.2045C13.4012 25.2209 13.4157 25.2399 13.427 25.2607H13.3908C12.928 25.2911 12.4634 25.28 12.0026 25.2276L10.1395 23.337C9.24461 22.4697 8.53116 21.4317 8.04104 20.2838C7.55093 19.136 7.29402 17.9014 7.28538 16.6525C7.27674 15.4036 7.51656 14.1656 7.99075 13.011C8.46494 11.8564 9.16396 10.8085 10.0468 9.92885C10.9297 9.04916 11.9786 8.35535 13.132 7.88814C14.2854 7.42092 15.5202 7.1897 16.7638 7.20804C18.0074 7.22638 19.2348 7.49391 20.3741 7.99493C21.5134 8.49595 22.5415 9.22038 23.3983 10.1257C23.4466 10.1718 23.485 10.2273 23.5113 10.2888C23.5376 10.3502 23.5511 10.4164 23.5511 10.4833C23.5511 10.5502 23.5376 10.6164 23.5113 10.6779C23.485 10.7394 23.4466 10.7948 23.3983 10.8409Z" fill="#009EDB"/>
<path d="M27.2761 14.0496L26.5738 14.7582L25.334 13.5099C25.2878 13.4632 25.2513 13.4078 25.2265 13.3469C25.2018 13.286 25.1892 13.2207 25.1895 13.155C25.1901 13.0221 25.2432 12.8949 25.3372 12.8014C25.4313 12.7078 25.5584 12.6556 25.6908 12.6563C25.8231 12.6569 25.9498 12.7103 26.0429 12.8047L27.2761 14.0496Z" fill="#009EDB"/>
<path d="M16.6619 24.3058H16.6388C16.3364 24.4726 16.0236 24.6197 15.7024 24.7461L12.2335 21.2629C11.1853 20.2018 10.5381 18.8071 10.4033 17.3187C10.2685 15.8302 10.6545 14.3412 11.4949 13.1076C11.5319 13.0535 11.5792 13.0072 11.634 12.9714C11.6889 12.9356 11.7502 12.911 11.8145 12.899C11.8788 12.887 11.9448 12.8879 12.0088 12.9015C12.0728 12.9152 12.1334 12.9413 12.1874 12.9785C12.242 13.0151 12.2888 13.0623 12.3249 13.1173C12.3611 13.1723 12.3859 13.2341 12.3979 13.2989C12.4098 13.3637 12.4088 13.4303 12.3947 13.4947C12.3806 13.5591 12.3539 13.62 12.3159 13.6738C11.6069 14.7152 11.2813 15.972 11.395 17.2282C11.5087 18.4845 12.0547 19.6618 12.9392 20.5576L16.6619 24.3058Z" fill="#009EDB"/>
<path d="M25.192 16.1495H25.1755L24.6545 16.6727L24.4864 16.8382L20.5988 12.9212C19.8947 12.2087 19.0067 11.7073 18.0346 11.4733C17.0625 11.2394 16.0447 11.2821 15.0955 11.5968C15.0331 11.6168 14.9674 11.6242 14.9022 11.6188C14.837 11.6133 14.7735 11.5949 14.7153 11.5648C14.6571 11.5347 14.6054 11.4933 14.5631 11.4431C14.5209 11.393 14.4889 11.3349 14.4689 11.2723C14.449 11.2097 14.4416 11.1437 14.447 11.0782C14.4525 11.0127 14.4708 10.9489 14.5008 10.8905C14.5308 10.8321 14.5719 10.7802 14.6219 10.7377C14.6719 10.6953 14.7297 10.6632 14.7921 10.6432C15.9171 10.2735 17.1225 10.2261 18.2728 10.5063C19.4232 10.7865 20.473 11.3831 21.3044 12.2292L25.192 16.1495Z" fill="#009EDB"/>
<path d="M23.1079 18.2387L22.4023 18.9439L18.5048 15.0037C18.2783 14.7748 18.0092 14.5929 17.7127 14.4684C17.4162 14.3439 17.0983 14.2793 16.7769 14.2782C16.4556 14.2772 16.1371 14.3397 15.8399 14.4621C15.5426 14.5846 15.2722 14.7647 15.0442 14.9921C14.8162 15.2195 14.6351 15.4898 14.5111 15.7875C14.3872 16.0852 14.3228 16.4046 14.3217 16.7272C14.3207 17.0499 14.3829 17.3697 14.5049 17.6682C14.6269 17.9667 14.8062 18.2382 15.0327 18.4671L17.542 21.0101C17.5887 21.056 17.6259 21.1109 17.6513 21.1714C17.6766 21.232 17.6897 21.297 17.6897 21.3627C17.6897 21.4284 17.6766 21.4934 17.6513 21.554C17.6259 21.6145 17.5887 21.6694 17.542 21.7153C17.4957 21.762 17.4407 21.799 17.3802 21.8242C17.3196 21.8495 17.2547 21.8625 17.1892 21.8625C17.1236 21.8625 17.0587 21.8495 16.9981 21.8242C16.9376 21.799 16.8826 21.762 16.8363 21.7153L14.3204 19.1724C13.7227 18.5122 13.4021 17.6457 13.4255 16.7538C13.4489 15.8619 13.8145 15.0135 14.446 14.3858C15.0774 13.7581 15.926 13.3996 16.8144 13.3852C17.7028 13.3708 18.5624 13.7015 19.2137 14.3084L23.1079 18.2387Z" fill="#009EDB"/>
<path d="M21.0244 20.3304L20.4869 20.8701L20.3188 21.0357L16.4147 17.0855C16.3247 16.9909 16.2752 16.8647 16.2769 16.7339C16.2785 16.6031 16.3312 16.4781 16.4235 16.3858C16.5158 16.2936 16.6405 16.2413 16.7708 16.2403C16.901 16.2392 17.0265 16.2895 17.1203 16.3803L21.0244 20.3304Z" fill="#009EDB"/>
<path fill-rule="evenodd" clip-rule="evenodd" d="M115.86 17.6971L110.284 9.67431L109.717 9.15115H115.214L118.94 15.2204L119.24 14.9754L121.492 11.6146C121.776 11.2458 121.903 10.7795 121.846 10.3169C121.79 9.85433 121.553 9.43299 121.189 9.14453H126.385L120.374 17.6971V23.912L121.433 25.1735H114.973L115.883 23.912C115.883 21.8459 115.807 19.7533 115.86 17.6905V17.6971ZM100.715 9.14453C101.16 9.75708 101.292 9.9723 101.342 10.5186C101.385 10.8409 101.346 11.1688 101.23 11.4722L97.0783 23.5544C96.809 24.162 96.4066 24.7008 95.9011 25.1305H100.415C100.088 24.8538 99.866 24.4727 99.7854 24.0511C99.7116 23.7536 99.7173 23.4418 99.8019 23.1472L100.745 20.2698H106.021L106.842 22.4816C106.926 22.7051 106.979 22.939 107 23.177C107.053 23.5542 107.002 23.9389 106.853 24.2891C106.703 24.6393 106.461 24.9418 106.153 25.1636H113.252C112.551 24.5993 111.974 23.8959 111.557 23.0975L106.351 9.14453H100.715ZM105.233 18.1938H101.464L103.291 12.9655L105.233 18.1938ZM86.3618 9.15777H89.9263H94.259C95.4065 9.16126 96.506 9.62032 97.3177 10.4348C98.1294 11.2492 98.5874 12.353 98.5918 13.5052V14.0416C98.5918 16.4356 96.6397 18.26 94.259 18.3461L92.2806 18.4057C93.8699 17.6706 94.5327 15.8197 94.3349 14.1509C94.1766 12.8265 93.4874 11.5219 92.3564 11.502H91.6343V23.422C91.6288 23.6126 91.6856 23.7998 91.7959 23.9551C92.0093 24.2803 92.2451 24.59 92.5015 24.8822L92.7126 25.1371H86.5663C86.6619 25.0212 86.7509 24.9087 86.8366 24.806C87.0278 24.5505 87.1873 24.2725 87.3115 23.9782C87.3897 23.808 87.4302 23.6227 87.4302 23.4352V10.6147C87.4104 9.94582 86.7476 9.56504 86.3618 9.15777Z" fill="#005BAA"/>
<path fill-rule="evenodd" clip-rule="evenodd" d="M53.0513 9.06836H57.9973L62.1652 21.0545L65.6934 11.1212C65.7576 10.8324 65.708 10.5298 65.5549 10.2769C65.3604 9.87296 65.1526 9.48225 64.9581 9.0816H68.661C68.4401 9.88951 68.117 10.7802 67.8367 11.598L63.0654 25.5642C61.6225 25.3249 60.2756 24.6836 59.1778 23.7133C58.3304 22.9054 58.0303 21.9883 57.6115 20.8956L53.6118 10.257C53.4505 9.84919 53.2632 9.45215 53.0513 9.06836ZM72.8355 14.6972V23.2465C72.8355 23.5776 72.918 23.6537 73.129 23.9352L74.1182 25.2133H69.4557L70.2438 24.0047C70.4363 23.7714 70.5392 23.4766 70.534 23.1736V11.2106L69.215 9.06836H74.0523L81.8868 19.2003V11.1279C81.8948 10.8221 81.7956 10.5233 81.6065 10.2835C81.3428 9.87958 81.0691 9.48887 80.8053 9.08823H85.4777L84.5049 10.3663C84.2906 10.6444 84.2115 10.6974 84.2115 11.055V25.6238C82.4441 25.3887 80.7987 24.9616 79.3379 23.0776L72.8355 14.6972Z" fill="#ED1C24"/>
<path d="M128.162 15.2312L129.762 10.5956C129.846 10.3692 129.897 10.1316 129.913 9.89038C129.904 9.7474 129.859 9.60906 129.783 9.48772C129.707 9.36638 129.602 9.26583 129.478 9.19505V9.17188H132.363L134.671 15.3967C134.768 15.7123 134.901 16.0156 135.067 16.3007C135.231 16.5451 135.425 16.7677 135.644 16.9629V17.0092H132.047V16.9596C132.18 16.904 132.296 16.813 132.381 16.6963C132.466 16.5796 132.518 16.4416 132.531 16.2974C132.53 16.1233 132.499 15.9507 132.439 15.7874L132.07 14.6418H129.715L129.369 15.6351C129.295 15.8505 129.241 16.0721 129.208 16.2974C129.209 16.4163 129.247 16.5318 129.316 16.6285C129.408 16.756 129.519 16.8678 129.646 16.9596V17.0059H127.223V16.9596C127.453 16.78 127.644 16.5545 127.783 16.2974C127.843 16.1737 127.902 16.0314 127.961 15.8702C128.004 15.698 128.077 15.4861 128.162 15.2312ZM130.058 13.5326H131.684L130.85 11.1585L130.058 13.5326Z" fill="#ED1C24"/>
<path d="M136.313 15.8215V10.4311C136.326 10.1734 136.288 9.91568 136.201 9.67284C136.11 9.48579 135.974 9.32428 135.806 9.20267V9.17949H139.275C139.821 9.15233 140.365 9.27479 140.847 9.53378C141.189 9.7244 141.464 10.0172 141.632 10.3715C141.765 10.6683 141.836 10.9896 141.84 11.3151C141.84 12.5689 141.121 13.3415 139.683 13.6329L138.938 13.7024C138.795 13.6776 138.651 13.6621 138.506 13.6561C138.863 13.5243 139.168 13.2804 139.376 12.9607C139.584 12.641 139.684 12.2625 139.66 11.8813C139.656 10.8505 139.246 10.3351 138.43 10.3351V15.5467C138.43 16.2089 138.608 16.6857 138.968 16.9672V17.0135H135.806V16.9904C135.983 16.8557 136.123 16.6774 136.212 16.4727C136.301 16.268 136.336 16.0438 136.313 15.8215Z" fill="#ED1C24"/>
<path d="M142.47 15.8215V10.4311C142.483 10.1734 142.445 9.91568 142.358 9.67284C142.267 9.48579 142.131 9.32428 141.962 9.20267V9.17949H145.431C145.978 9.15233 146.521 9.27479 147.004 9.53378C147.346 9.72542 147.621 10.0178 147.792 10.3715C147.925 10.6683 147.996 10.9896 148 11.3151C148 12.5689 147.281 13.3415 145.843 13.6329L145.095 13.7024C144.952 13.6776 144.808 13.6621 144.663 13.6561C145.02 13.5249 145.326 13.2812 145.535 12.9615C145.743 12.6417 145.843 12.2629 145.82 11.8813C145.82 10.8505 145.414 10.3351 144.6 10.3351V15.5467C144.6 16.2089 144.778 16.6857 145.138 16.9672V17.0135H141.962V16.9904C142.14 16.8557 142.28 16.6774 142.369 16.4727C142.458 16.268 142.493 16.0438 142.47 15.8215Z" fill="#ED1C24"/>
<path d="M58.3464 30.3034C58.3464 30.9457 58.6135 31.2735 59.3092 31.2735C59.5794 31.2748 59.8476 31.2266 60.1006 31.1311C60.2259 31.0815 60.2622 31.1311 60.2622 31.2503V31.3166C60.2622 31.4324 60.2325 31.4755 60.1006 31.5384C59.8523 31.6377 59.5862 31.6839 59.3191 31.6742C58.3629 31.6742 57.9111 31.247 57.9111 30.3034V29.4226C57.9111 28.4723 58.3629 27.9922 59.3092 27.9922C59.5698 27.9908 59.8283 28.0391 60.0709 28.1346C60.2028 28.1843 60.2325 28.2372 60.2325 28.3465V28.416C60.2325 28.5551 60.1764 28.5948 60.061 28.5419C59.8171 28.4425 59.5559 28.3929 59.2927 28.3962C58.6333 28.3962 58.3464 28.7273 58.3464 29.4226V30.3034Z" fill="#009EDB"/>
<path d="M59.3194 31.6802C58.3532 31.6802 57.9048 31.2431 57.9048 30.3028V29.422C57.9048 28.4585 58.3631 27.9883 59.3095 27.9883C59.5712 27.9866 59.8308 28.0349 60.0745 28.1307C60.2129 28.1837 60.236 28.24 60.236 28.3459V28.4188C60.236 28.4916 60.236 28.5347 60.1899 28.5578C60.1694 28.568 60.1468 28.5734 60.1239 28.5734C60.101 28.5734 60.0785 28.568 60.058 28.5578C59.8157 28.4569 59.5552 28.4073 59.293 28.4121C58.6335 28.4121 58.3499 28.7433 58.3499 29.432V30.3127C58.3499 30.9749 58.6467 31.2762 59.3095 31.2762C59.5787 31.2789 59.8461 31.2306 60.0975 31.1339C60.1635 31.1107 60.2031 31.1074 60.2294 31.1339C60.2558 31.1604 60.269 31.1935 60.269 31.2696V31.3358C60.269 31.455 60.236 31.5014 60.1008 31.561C59.8518 31.6564 59.5853 31.6971 59.3194 31.6802ZM59.3194 27.9983C58.3829 27.9983 57.9279 28.4651 57.9279 29.422V30.3028C57.9279 31.2365 58.373 31.6703 59.3292 31.6703C59.5956 31.6804 59.861 31.633 60.1074 31.5312C60.236 31.4716 60.2657 31.4319 60.2657 31.316V31.2498C60.2657 31.1802 60.2657 31.1405 60.2327 31.1239C60.1998 31.1074 60.1734 31.1239 60.1107 31.1239C59.8583 31.2218 59.5899 31.2712 59.3194 31.2696C58.6599 31.2696 58.3499 30.9683 58.3499 30.2763V29.3955C58.3499 28.6803 58.6434 28.3625 59.3029 28.3625C59.5664 28.3587 59.8279 28.4094 60.0712 28.5115C60.1272 28.5347 60.1668 28.538 60.1932 28.5115C60.2195 28.485 60.236 28.4486 60.236 28.3823V28.3095C60.236 28.2069 60.2129 28.1539 60.0811 28.1042C59.833 28.0196 59.571 27.9836 59.3095 27.9983H59.3194Z" fill="#009EDB"/>
<path d="M60.8462 27.945C60.8462 27.796 60.8825 27.7695 61.021 27.7695H61.0836C61.2287 27.7695 61.2551 27.796 61.2551 27.945V29.2297C61.3552 29.0984 61.4872 28.995 61.6384 28.9295C61.7897 28.864 61.9551 28.8385 62.119 28.8556C62.7785 28.8556 63.1313 29.1867 63.1313 29.8191V31.4482C63.1313 31.5938 63.1016 31.6236 62.9565 31.6236H62.8906C62.7422 31.6236 62.7158 31.5938 62.7158 31.4482V29.8721C62.7158 29.435 62.5213 29.2463 62.0135 29.2463C61.5057 29.2463 61.2551 29.4582 61.2551 29.9648V31.4515C61.2551 31.5972 61.2287 31.627 61.0836 31.627H61.021C60.8825 31.627 60.8462 31.5972 60.8462 31.4515V27.945Z" fill="#009EDB"/>
<path d="M62.9568 31.631H62.8908C62.7391 31.631 62.7095 31.5979 62.7095 31.4489V29.8728C62.7095 29.4358 62.5083 29.257 62.0137 29.257C61.5191 29.257 61.2619 29.4689 61.2619 29.9689V31.4555C61.2619 31.6045 61.2322 31.6377 61.0839 31.6377H61.0212C60.8761 31.6377 60.8398 31.6012 60.8398 31.4555V27.9491C60.8398 27.7902 60.8827 27.767 61.0212 27.767H61.0839C61.2322 27.767 61.2619 27.7968 61.2619 27.9491V29.2106C61.3644 29.0845 61.4962 28.9857 61.6457 28.9227C61.7952 28.8598 61.9578 28.8347 62.1192 28.8497C62.7787 28.8497 63.1381 29.1808 63.1381 29.8199V31.4489C63.1546 31.5979 63.1051 31.631 62.9568 31.631ZM62.0137 29.2404C62.5149 29.2404 62.7226 29.4225 62.7226 29.8662V31.4489C62.7226 31.5913 62.7457 31.6178 62.8908 31.6178H62.9568C63.1018 31.6178 63.1249 31.5913 63.1249 31.4489V29.8199C63.1249 29.1841 62.7952 28.8596 62.1357 28.8596C61.9728 28.8421 61.8081 28.8674 61.6578 28.933C61.5076 28.9986 61.3768 29.1022 61.2784 29.2338V27.9359C61.2784 27.7902 61.252 27.7637 61.1102 27.7637H61.0476C60.9157 27.7637 60.8794 27.7835 60.8794 27.9359V31.4357C60.8794 31.5814 60.9157 31.6045 61.0476 31.6045H61.1102C61.252 31.6045 61.2784 31.5781 61.2784 31.4357V29.949C61.252 29.4556 61.4795 29.2404 62.0137 29.2404Z" fill="#009EDB"/>
<path d="M63.7178 30.5327V30.0228C63.7178 29.2513 64.1168 28.8672 64.9213 28.8672C65.7259 28.8672 66.1183 29.2678 66.1183 30.0228V30.5327C66.1183 31.3053 65.7193 31.6904 64.9213 31.6882C64.0673 31.675 63.7178 31.2744 63.7178 30.5327ZM65.6962 30.0228C65.6962 29.493 65.5082 29.2546 64.9114 29.2546C64.3146 29.2546 64.1168 29.493 64.1168 30.0228V30.5327C64.1168 31.0624 64.3146 31.3008 64.9114 31.3008C65.5082 31.3008 65.6962 31.0624 65.6962 30.5327V30.0228Z" fill="#009EDB"/>
<path d="M64.922 31.6821C64.0976 31.6821 63.7119 31.3145 63.7119 30.5199V30.01C63.6997 29.8516 63.7205 29.6925 63.7727 29.5426C63.8249 29.3928 63.9075 29.2554 64.0152 29.1392C64.2675 28.926 64.5933 28.8213 64.922 28.8478C65.7397 28.8478 66.1222 29.2153 66.1222 30.01V30.5331C66.1222 31.2914 65.72 31.6821 64.922 31.6821ZM64.922 28.8577C64.5962 28.8339 64.2738 28.937 64.0218 29.1458C63.9161 29.2618 63.8352 29.3983 63.7841 29.547C63.7331 29.6956 63.713 29.8532 63.725 30.01V30.5331C63.725 31.3179 64.1042 31.6854 64.922 31.6854C65.2457 31.7085 65.5658 31.6053 65.8156 31.3973C65.9231 31.2821 66.0058 31.146 66.0585 30.9973C66.1113 30.8486 66.133 30.6906 66.1222 30.5331V30.0232C66.1222 29.2252 65.7331 28.8577 64.922 28.8577ZM64.922 31.2914C64.3449 31.2914 64.1207 31.0761 64.1207 30.5199V30.01C64.1207 29.4471 64.3384 29.2385 64.922 29.2385C65.5056 29.2385 65.7134 29.4471 65.7134 30.01V30.5331C65.7134 31.0828 65.499 31.2914 64.922 31.2914ZM64.922 29.2484C64.3482 29.2484 64.1339 29.4537 64.1339 30.01V30.5331C64.1339 31.0795 64.3548 31.2947 64.922 31.2947C65.4891 31.2947 65.7035 31.0894 65.7035 30.5331V30.0232C65.7035 29.4537 65.4891 29.2484 64.922 29.2484Z" fill="#009EDB"/>
<path d="M68.1001 29.993C68.1001 29.2712 68.4859 28.854 69.3201 28.854C69.4834 28.8498 69.6461 28.8733 69.8015 28.9235C69.9334 28.9666 69.9697 29.0063 69.9697 29.1321V29.1884C69.9697 29.3275 69.9334 29.3639 69.8015 29.3209C69.6502 29.2669 69.4906 29.24 69.33 29.2414C68.7167 29.2414 68.509 29.4864 68.509 29.9996V30.5327C68.509 31.089 68.7563 31.2876 69.3663 31.2876C69.533 31.291 69.699 31.2664 69.8576 31.2148C69.9862 31.1718 70.0225 31.2148 70.0225 31.3539V31.4068C70.0225 31.5227 69.9862 31.5658 69.8477 31.6055C69.682 31.6551 69.5095 31.6786 69.3366 31.675C68.4991 31.675 68.1001 31.3141 68.1001 30.536V29.993Z" fill="#009EDB"/>
<path d="M69.347 31.6832C69.0106 31.7116 68.676 31.6111 68.4105 31.4018C68.2992 31.2885 68.2138 31.1522 68.1603 31.0024C68.1068 30.8525 68.0864 30.6928 68.1006 30.5343V29.9913C68.0905 29.8374 68.112 29.6831 68.1636 29.5379C68.2152 29.3927 68.2958 29.2596 68.4006 29.1469C68.6578 28.9278 68.9908 28.8195 69.3272 28.8456C69.4917 28.8422 69.6556 28.8668 69.8119 28.9185C69.9471 28.9615 69.9801 29.0046 69.9801 29.1304V29.1867C69.9801 29.2661 69.9801 29.3092 69.9405 29.3291C69.9009 29.3489 69.8745 29.3291 69.8086 29.3291C69.6573 29.2749 69.4977 29.2479 69.3371 29.2496C68.76 29.2496 68.5226 29.4681 68.5226 29.9979V30.5343C68.5226 31.0806 68.7534 31.2826 69.3733 31.2826C69.54 31.2865 69.7062 31.2619 69.8647 31.2098C69.924 31.1899 69.9669 31.1866 69.9933 31.2098C70.0196 31.2329 70.0361 31.276 70.0361 31.3554V31.4117C70.0361 31.5309 69.9933 31.5773 69.8581 31.6137C69.6924 31.6637 69.5199 31.6871 69.347 31.6832ZM69.3305 28.8589C68.5358 28.8589 68.117 29.2529 68.117 29.9946V30.5343C68.117 31.3091 68.5061 31.67 69.347 31.67C69.5201 31.6728 69.6926 31.6482 69.8581 31.5972C69.99 31.5607 70.0262 31.5177 70.0262 31.4051V31.3488C70.0262 31.2727 70.0262 31.2329 69.99 31.2131C69.9537 31.1932 69.9273 31.2131 69.8712 31.2131C69.7116 31.2651 69.5444 31.2898 69.3766 31.2859C68.7567 31.2859 68.5127 31.074 68.5127 30.5277V29.9913C68.5127 29.4516 68.7534 29.233 69.3404 29.233C69.5017 29.232 69.6622 29.2577 69.8152 29.3092C69.8778 29.3291 69.9141 29.3324 69.9372 29.3092C69.9603 29.286 69.9735 29.2529 69.9735 29.1767V29.1205C69.9735 29.0013 69.9438 28.9615 69.8119 28.9185C69.656 28.8711 69.4932 28.8509 69.3305 28.8589Z" fill="#009EDB"/>
<path d="M70.8277 30.6518C70.8277 31.0855 71.0058 31.2908 71.563 31.2908C72.1203 31.2908 72.2884 31.0922 72.2884 30.6518V29.0856C72.2884 28.9499 72.328 28.9102 72.4665 28.9102H72.5258C72.6742 28.9102 72.7006 28.9499 72.7006 29.0856V30.6518C72.7006 31.314 72.3709 31.6782 71.563 31.6782C70.7552 31.6782 70.4155 31.3471 70.4155 30.6518V29.0856C70.4155 28.9499 70.4551 28.9102 70.5903 28.9102H70.6496C70.798 28.9102 70.8277 28.9499 70.8277 29.0856V30.6518Z" fill="#009EDB"/>
<path d="M71.5624 31.6798C70.7974 31.6798 70.4116 31.3486 70.4116 30.6467V29.0805C70.4116 28.9415 70.4512 28.8984 70.5897 28.8984H70.649C70.804 28.8984 70.8304 28.9448 70.8304 29.0805V30.6467C70.8304 31.1003 71.0348 31.2791 71.5624 31.2791C72.09 31.2791 72.2812 31.1069 72.2812 30.6467V29.0805C72.2812 28.9415 72.3241 28.8984 72.4659 28.8984H72.5252C72.6802 28.8984 72.7066 28.9448 72.7066 29.0805V30.6467C72.7182 30.7867 72.7001 30.9275 72.6534 31.0599C72.6068 31.1923 72.5328 31.3133 72.4362 31.4149C72.1897 31.6127 71.8768 31.7076 71.5624 31.6798ZM70.5897 28.9117C70.4578 28.9117 70.4215 28.9448 70.4215 29.0805V30.6467C70.4117 30.7876 70.4319 30.929 70.4808 31.0615C70.5297 31.194 70.6061 31.3144 70.7051 31.4149C70.9505 31.6017 71.2553 31.6924 71.5624 31.6698C71.8747 31.6973 72.1855 31.6024 72.4296 31.4049C72.5243 31.3042 72.597 31.1848 72.643 31.0542C72.689 30.9236 72.7073 30.7848 72.6967 30.6467V29.0805C72.6967 28.9514 72.6703 28.9117 72.5252 28.9117H72.4659C72.3307 28.9117 72.2944 28.9481 72.2944 29.0805V30.6467C72.2944 31.1102 72.09 31.289 71.5624 31.289C71.0348 31.289 70.8205 31.1102 70.8205 30.6467V29.0805C70.8205 28.9514 70.7974 28.9117 70.649 28.9117H70.5897Z" fill="#009EDB"/>
<path d="M73.2515 30.5319V30.0219C73.2515 29.2505 73.6505 28.8664 74.455 28.8664C75.2596 28.8664 75.652 29.267 75.652 30.0219V30.5319C75.652 31.3044 75.253 31.6896 74.455 31.6874C73.601 31.6742 73.2515 31.2735 73.2515 30.5319ZM75.2299 30.0219C75.2299 29.4922 75.0419 29.2538 74.4418 29.2538C73.8417 29.2538 73.6472 29.4922 73.6472 30.0219V30.5319C73.6472 31.0616 73.8483 31.3 74.4418 31.3C75.0353 31.3 75.2299 31.0616 75.2299 30.5319V30.0219ZM74.056 28.1446C74.1879 27.9393 74.2638 27.873 74.4418 27.873C74.6199 27.873 74.7023 27.9293 74.8342 28.1446L75.0419 28.4757C75.1079 28.575 75.0848 28.6015 74.9694 28.6015H74.9265C74.8806 28.6082 74.8337 28.5995 74.7932 28.5768C74.7526 28.554 74.7207 28.5185 74.7023 28.4757L74.5737 28.2604C74.488 28.1048 74.399 28.1048 74.3132 28.2604L74.1912 28.4757C74.1724 28.5181 74.1404 28.5534 74.1 28.576C74.0595 28.5987 74.0129 28.6076 73.967 28.6015H73.9175C73.8021 28.6015 73.7856 28.5684 73.8483 28.4757L74.056 28.1446ZM74.2572 32.1775C74.2954 32.1389 74.3441 32.1125 74.3973 32.1018C74.4504 32.091 74.5055 32.0963 74.5556 32.1171C74.6057 32.1378 74.6486 32.1731 74.6787 32.2183C74.7089 32.2635 74.725 32.3167 74.725 32.3712C74.725 32.4256 74.7089 32.4788 74.6787 32.524C74.6486 32.5693 74.6057 32.6045 74.5556 32.6252C74.5055 32.646 74.4504 32.6513 74.3973 32.6406C74.3441 32.6298 74.2954 32.6035 74.2572 32.5649C74.2316 32.5378 74.2116 32.5059 74.1984 32.4711C74.1852 32.4362 74.1791 32.3991 74.1803 32.3618C74.1815 32.3245 74.1901 32.2878 74.2056 32.2539C74.221 32.22 74.2431 32.1895 74.2704 32.1642L74.2572 32.1775Z" fill="#009EDB"/>
<path d="M74.4611 32.6335C74.3883 32.6337 74.3185 32.6052 74.2665 32.5541C74.2159 32.5011 74.1877 32.4305 74.1877 32.3571C74.1877 32.2837 74.2159 32.2131 74.2665 32.1601C74.3186 32.1093 74.3884 32.0808 74.4611 32.0806C74.5157 32.0805 74.5692 32.0966 74.6148 32.1269C74.6604 32.1573 74.696 32.2005 74.7172 32.2511C74.7383 32.3017 74.7441 32.3575 74.7337 32.4115C74.7233 32.4654 74.6973 32.515 74.6589 32.5541C74.6059 32.6057 74.5348 32.6342 74.4611 32.6335ZM74.4611 32.0905C74.426 32.0906 74.3914 32.0976 74.3591 32.1113C74.3269 32.1249 74.2976 32.1449 74.2731 32.17C74.2485 32.1948 74.2292 32.2242 74.2162 32.2567C74.2031 32.2891 74.1967 32.3238 74.1973 32.3587C74.1969 32.4292 74.2241 32.497 74.2731 32.5475C74.3239 32.5957 74.3912 32.6225 74.4611 32.6225C74.5309 32.6225 74.5982 32.5957 74.649 32.5475C74.6989 32.4973 74.7273 32.4296 74.7281 32.3587C74.7273 32.2879 74.6989 32.2201 74.649 32.17C74.5991 32.1199 74.5316 32.0914 74.4611 32.0905ZM74.4611 31.68C73.6367 31.68 73.2509 31.3124 73.2509 30.5178V30.0078C73.2388 29.8495 73.2595 29.6904 73.3117 29.5405C73.3639 29.3906 73.4465 29.2533 73.5543 29.137C73.8069 28.9245 74.1325 28.8199 74.4611 28.8457C75.2821 28.8457 75.6646 29.2132 75.6646 30.0078V30.531C75.658 31.2892 75.2524 31.68 74.4545 31.68H74.4611ZM74.4611 28.8556C74.1353 28.8317 73.8128 28.9349 73.5609 29.1437C73.4551 29.2596 73.3743 29.3962 73.3232 29.5448C73.2722 29.6935 73.2521 29.8511 73.2641 30.0078V30.531C73.2641 31.3157 73.6433 31.6833 74.4611 31.6833C74.7847 31.7064 75.1049 31.6032 75.3546 31.3952C75.4604 31.2792 75.5413 31.1427 75.5923 30.994C75.6433 30.8454 75.6635 30.6878 75.6514 30.531V30.0211C75.6448 29.2231 75.2656 28.8556 74.4545 28.8556H74.4611ZM74.4611 31.2892C73.8873 31.2892 73.6631 31.074 73.6631 30.5178V30.0078C73.6631 29.445 73.8774 29.2364 74.4611 29.2364C75.0447 29.2364 75.2524 29.445 75.2524 30.0078V30.531C75.2458 31.0806 75.0249 31.2892 74.4545 31.2892H74.4611ZM74.4611 29.2463C73.8873 29.2463 73.673 29.4516 73.673 30.0078V30.531C73.673 31.0773 73.8939 31.2926 74.4611 31.2926C75.0282 31.2926 75.2425 31.0873 75.2425 30.531V30.0211C75.2359 29.4516 75.0249 29.2463 74.4545 29.2463H74.4611ZM74.9886 28.5841H74.9458C74.8985 28.591 74.8503 28.582 74.8086 28.5587C74.7669 28.5354 74.734 28.4989 74.715 28.4549L74.5897 28.2397C74.5468 28.1636 74.5039 28.1271 74.4644 28.1271C74.4215 28.1271 74.3786 28.1636 74.3391 28.2397L74.2171 28.4549C74.198 28.4989 74.1651 28.5354 74.1234 28.5587C74.0817 28.582 74.0335 28.591 73.9862 28.5841H73.9368C73.8741 28.5841 73.8411 28.5841 73.8313 28.551C73.8214 28.5179 73.8313 28.498 73.8609 28.4483L74.0687 28.1172C74.2006 27.9152 74.2797 27.8457 74.4611 27.8457C74.6424 27.8457 74.7215 27.8987 74.8567 28.1172L75.0645 28.4483C75.1007 28.498 75.1106 28.5311 75.0974 28.5543C75.0843 28.5775 75.048 28.5874 74.982 28.5874L74.9886 28.5841ZM74.4644 28.1172C74.5072 28.1172 74.5534 28.1569 74.5995 28.2331L74.7248 28.4483C74.7427 28.4906 74.7742 28.5257 74.8142 28.5479C74.8543 28.5701 74.9006 28.5782 74.9458 28.5708H74.9886C75.048 28.5708 75.081 28.5708 75.0876 28.5477C75.0942 28.5245 75.0876 28.5013 75.0546 28.4549L74.8469 28.1238C74.715 27.9086 74.6391 27.8556 74.4611 27.8556C74.283 27.8556 74.2105 27.9219 74.0786 28.1238L73.8708 28.4549C73.8411 28.5013 73.8313 28.5311 73.8411 28.5477C73.851 28.5642 73.8807 28.5708 73.9368 28.5708H73.9862C74.0313 28.5776 74.0774 28.5693 74.1173 28.5471C74.1573 28.525 74.1888 28.4903 74.2072 28.4483L74.3292 28.2331C74.3654 28.1603 74.4116 28.1205 74.4578 28.1205L74.4644 28.1172Z" fill="#009EDB"/>
<path d="M76.1826 29.993C76.1826 29.2712 76.5684 28.854 77.4027 28.854C77.5659 28.8498 77.7286 28.8733 77.8841 28.9235C78.016 28.9666 78.0522 29.0063 78.0522 29.1321V29.1884C78.0522 29.3275 78.016 29.3639 77.8841 29.3209C77.7327 29.2669 77.5731 29.24 77.4125 29.2414C76.7992 29.2414 76.5915 29.4864 76.5915 29.9996V30.5327C76.5915 31.089 76.8388 31.2876 77.4488 31.2876C77.6155 31.291 77.7815 31.2664 77.9401 31.2148C78.0687 31.1718 78.105 31.2148 78.105 31.3539V31.4068C78.105 31.5227 78.0687 31.5658 77.9302 31.6055C77.7645 31.6551 77.5921 31.6786 77.4191 31.675C76.5816 31.675 76.1826 31.3141 76.1826 30.536V29.993Z" fill="#009EDB"/>
<path d="M77.4194 31.6819C77.083 31.7103 76.7484 31.6097 76.4829 31.4004C76.3726 31.2872 76.2881 31.1513 76.2352 31.0021C76.1823 30.8529 76.1621 30.694 76.1762 30.5362V29.9932C76.1662 29.8394 76.1876 29.6851 76.2393 29.5399C76.2909 29.3947 76.3715 29.2616 76.4763 29.1489C76.7335 28.9297 77.0665 28.8214 77.4029 28.8476C77.5674 28.8442 77.7313 28.8688 77.8876 28.9204C78.0228 28.9635 78.0558 29.0065 78.0558 29.1323V29.1886C78.0558 29.2681 78.0558 29.3111 78.0162 29.331C77.9766 29.3509 77.9502 29.331 77.8843 29.331C77.7329 29.2771 77.5734 29.2502 77.4128 29.2515C76.8324 29.2515 76.5983 29.4701 76.5983 29.9998V30.5329C76.5983 31.0793 76.8291 31.2812 77.449 31.2812C77.6157 31.2852 77.7819 31.2605 77.9403 31.2084C77.9997 31.1885 78.0393 31.1852 78.0689 31.2084C78.0986 31.2316 78.1085 31.2746 78.1085 31.3541V31.4104C78.1085 31.5296 78.0689 31.5759 77.9304 31.6124C77.7649 31.6627 77.5923 31.6862 77.4194 31.6819ZM77.4194 28.8575C76.6247 28.8575 76.2026 29.2515 76.2026 29.9932V30.5329C76.2026 31.3077 76.595 31.6686 77.4358 31.6686C77.6079 31.672 77.7794 31.6474 77.9436 31.5958C78.0788 31.5594 78.1151 31.5163 78.1151 31.4038V31.3475C78.1151 31.2713 78.1151 31.2316 78.0788 31.2117C78.0426 31.1918 78.0162 31.2117 77.9601 31.2117C77.8005 31.2638 77.6333 31.2884 77.4655 31.2846C76.8423 31.2846 76.6016 31.0726 76.6016 30.5263V29.9899C76.6016 29.4502 76.8423 29.2317 77.4292 29.2317C77.5906 29.2306 77.7511 29.2563 77.9041 29.3078C77.9667 29.331 78.003 29.331 78.0261 29.3078C78.0492 29.2847 78.0623 29.2515 78.0623 29.1754V29.1191C78.0623 28.9999 78.0327 28.9602 77.9008 28.9171C77.7396 28.8681 77.571 28.8479 77.4029 28.8575H77.4194Z" fill="#009EDB"/>
<path d="M79.9189 31.325C79.9189 31.186 79.9618 31.1562 80.0937 31.1827C80.356 31.2544 80.6265 31.2911 80.8983 31.2919C81.3236 31.2919 81.4984 31.2158 81.4984 30.9608C81.4984 30.7853 81.4061 30.6926 81.1423 30.5668L80.4828 30.2357C80.1333 30.0668 79.9717 29.9046 79.9717 29.5205C79.9717 29.0437 80.2817 28.8285 80.9444 28.8285C81.1761 28.8242 81.4068 28.8589 81.627 28.9311C81.7589 28.9775 81.7952 29.0073 81.7952 29.1364V29.2092C81.7952 29.345 81.7424 29.3781 81.6171 29.3417C81.3958 29.269 81.1641 29.2332 80.9312 29.2357C80.5323 29.2357 80.3806 29.3251 80.3806 29.5437C80.3806 29.6993 80.4762 29.8185 80.6674 29.9079L81.3665 30.239C81.7391 30.4178 81.9139 30.5701 81.9139 30.9774C81.9139 31.4674 81.5841 31.6859 80.8785 31.6859C80.6167 31.6877 80.356 31.6531 80.1036 31.5833C79.9651 31.5436 79.9288 31.4939 79.9288 31.378L79.9189 31.325Z" fill="#009EDB"/>
<path d="M80.8675 31.6831C80.6058 31.6845 80.345 31.65 80.0926 31.5804C79.9541 31.5407 79.9146 31.491 79.9146 31.3685V31.3255C79.9146 31.2526 79.9146 31.2096 79.9541 31.1864C79.9766 31.177 80.0007 31.1722 80.025 31.1722C80.0494 31.1722 80.0734 31.177 80.0959 31.1864C80.357 31.2582 80.6264 31.295 80.8972 31.2957C81.3291 31.2957 81.4907 31.2129 81.4907 30.9878C81.4907 30.8189 81.4083 30.7262 81.1379 30.597L80.4784 30.2659C80.3255 30.219 80.1926 30.1222 80.1006 29.9909C80.0086 29.8595 79.9629 29.7012 79.9706 29.5408C79.9706 29.064 80.2839 28.8422 80.9598 28.8422C81.1925 28.8382 81.4243 28.8729 81.6457 28.9448C81.7776 28.9912 81.8138 29.0243 81.8138 29.1567V29.2097C81.8174 29.2341 81.8155 29.259 81.808 29.2825C81.8006 29.3061 81.7879 29.3276 81.771 29.3455C81.749 29.3565 81.7247 29.3623 81.7001 29.3623C81.6755 29.3623 81.6512 29.3565 81.6292 29.3455C81.4087 29.2743 81.1782 29.2396 80.9466 29.2428C80.5542 29.2428 80.3993 29.3256 80.3993 29.5441C80.3993 29.6964 80.4949 29.8156 80.6861 29.9017L81.3852 30.2328C81.7413 30.4017 81.9358 30.5639 81.9358 30.9745C81.9095 31.4546 81.5797 31.6831 80.8675 31.6831ZM80.0201 31.1964C80.0008 31.1903 79.98 31.1903 79.9607 31.1964C79.9343 31.2162 79.9244 31.256 79.9244 31.3255V31.3685C79.9244 31.4844 79.964 31.5308 80.0959 31.5672C80.3471 31.6376 80.6067 31.6733 80.8675 31.6732C81.5797 31.6732 81.8963 31.4546 81.8963 30.9679C81.8963 30.5706 81.705 30.405 81.3522 30.2361L80.6565 29.905C80.4619 29.8156 80.363 29.6931 80.363 29.5375C80.363 29.3123 80.518 29.2064 80.9203 29.2064C81.1531 29.2039 81.3848 29.2397 81.6061 29.3123C81.6721 29.3322 81.7149 29.3322 81.738 29.3123C81.7611 29.2925 81.7776 29.2527 81.7776 29.1865V29.1369C81.7776 29.011 81.7413 28.9812 81.616 28.9382C81.396 28.8648 81.1653 28.829 80.9334 28.8322C80.274 28.8322 79.9673 29.0508 79.9673 29.5209C79.9673 29.9117 80.1388 30.0673 80.4751 30.2328L81.1346 30.5639C81.4083 30.6964 81.494 30.7924 81.494 30.9646C81.494 31.1997 81.3324 31.2957 80.8906 31.2957C80.6188 31.2952 80.3482 31.2585 80.086 31.1864L80.0201 31.1964Z" fill="#009EDB"/>
<path d="M82.4341 30.5344V30.0245C82.4341 29.253 82.8331 28.8689 83.6376 28.8689C84.4422 28.8689 84.8346 29.2696 84.8346 30.0245V30.5344C84.8346 31.307 84.4356 31.6922 83.6376 31.69C82.7836 31.6767 82.4341 31.2761 82.4341 30.5344ZM84.4125 30.0245C84.4125 29.4947 84.2246 29.2563 83.6277 29.2563C83.0309 29.2563 82.8331 29.4947 82.8331 30.0245V30.5344C82.8331 31.0642 83.0342 31.3026 83.6277 31.3026C84.2213 31.3026 84.4125 31.0642 84.4125 30.5344V30.0245ZM83.2683 28.1338C83.4002 27.9286 83.4761 27.8623 83.6541 27.8623C83.8322 27.8623 83.9113 27.9186 84.0432 28.1338L84.2509 28.465C84.3202 28.5643 84.2971 28.5908 84.1817 28.5908H84.1388C84.0925 28.5972 84.0453 28.5884 84.0043 28.5657C83.9633 28.543 83.9307 28.5077 83.9113 28.465L83.786 28.2497C83.7003 28.0941 83.6112 28.0941 83.5255 28.2497L83.4035 28.465C83.3845 28.508 83.352 28.5437 83.3109 28.5664C83.2698 28.5891 83.2224 28.5977 83.176 28.5908H83.1298C83.0144 28.5908 82.9979 28.5577 83.0606 28.465L83.2683 28.1338ZM84.6664 27.8027C84.6428 27.8446 84.6081 27.8791 84.5662 27.9025C84.5244 27.9259 84.4769 27.9372 84.429 27.9352H84.3729C84.2476 27.9352 84.2312 27.9087 84.2905 27.7961L84.5213 27.3524C84.5407 27.2965 84.5791 27.2493 84.6298 27.219C84.6804 27.1887 84.7401 27.1773 84.7983 27.1869H84.8511C84.9994 27.1869 85.0225 27.22 84.9368 27.3458L84.6664 27.8027Z" fill="#009EDB"/>
<path d="M83.6378 31.6831C82.8135 31.6831 82.4277 31.3155 82.4277 30.5209V30.011C82.4156 29.8526 82.4363 29.6935 82.4885 29.5436C82.5407 29.3937 82.6233 29.2564 82.731 29.1401C82.9837 28.9276 83.3092 28.823 83.6378 28.8488C84.4589 28.8488 84.8381 29.2163 84.8381 30.011V30.5341C84.8381 31.2923 84.4358 31.6831 83.6378 31.6831ZM83.6378 28.8587C83.312 28.8348 82.9896 28.938 82.7376 29.1468C82.6319 29.2627 82.551 29.3993 82.5 29.5479C82.4489 29.6966 82.4288 29.8542 82.4409 30.011V30.5341C82.4409 31.3188 82.8201 31.6864 83.6378 31.6864C83.9615 31.7095 84.2816 31.6063 84.5314 31.3983C84.6371 31.2823 84.718 31.1458 84.7691 30.9971C84.8201 30.8485 84.8402 30.6909 84.8282 30.5341V30.0242C84.8282 29.2262 84.449 28.8587 83.6378 28.8587ZM83.6378 31.2923C83.0641 31.2923 82.8398 31.0771 82.8398 30.5209V30.011C82.8398 29.4481 83.0542 29.2395 83.6378 29.2395C84.2214 29.2395 84.4292 29.4481 84.4292 30.011V30.5341C84.4292 31.0837 84.2148 31.2923 83.6378 31.2923ZM83.6378 29.2494C83.0641 29.2494 82.8497 29.4547 82.8497 30.011V30.5341C82.8497 31.0804 83.0707 31.2957 83.6378 31.2957C84.205 31.2957 84.4193 31.0904 84.4193 30.5341V30.0242C84.4193 29.4547 84.2083 29.2494 83.6378 29.2494ZM84.1654 28.5872H84.1225C84.0753 28.5941 84.0271 28.5852 83.9854 28.5618C83.9437 28.5385 83.9107 28.502 83.8917 28.4581L83.7664 28.2428C83.6807 28.0938 83.5982 28.0938 83.5158 28.2428L83.3938 28.4581C83.3742 28.5023 83.3407 28.5389 83.2984 28.5622C83.2561 28.5855 83.2074 28.5943 83.1597 28.5872H83.1135C83.0509 28.5872 83.0179 28.5872 83.008 28.5541C82.9981 28.521 83.008 28.5011 83.0377 28.4514L83.2454 28.1203C83.3773 27.9183 83.4565 27.8488 83.6378 27.8488C83.8192 27.8488 83.8983 27.9018 84.0335 28.1203L84.2412 28.4514C84.2742 28.5011 84.2874 28.5342 84.2742 28.5574C84.261 28.5806 84.2313 28.5905 84.1654 28.5905V28.5872ZM83.6411 28.1203C83.684 28.1203 83.7301 28.1601 83.7763 28.2362L83.9016 28.4514C83.9195 28.4937 83.9509 28.5288 83.991 28.551C84.031 28.5732 84.0774 28.5813 84.1225 28.5739H84.1654C84.2247 28.5739 84.2577 28.5739 84.2643 28.5508C84.2709 28.5276 84.2643 28.5044 84.2313 28.4581L84.0236 28.1269C83.8917 27.9117 83.8159 27.8587 83.6378 27.8587C83.4597 27.8587 83.3872 27.925 83.2553 28.1269L83.0476 28.4581C83.0179 28.5044 83.008 28.5342 83.0179 28.5508C83.0278 28.5673 83.0575 28.5739 83.1135 28.5739H83.1597C83.2053 28.5815 83.2521 28.5735 83.2928 28.5513C83.3334 28.5292 83.3654 28.494 83.3839 28.4514L83.5059 28.2362C83.5488 28.1634 83.5982 28.1236 83.6411 28.1236V28.1203ZM84.4127 27.9382H84.3566C84.2874 27.9382 84.2544 27.9382 84.2412 27.9051C84.228 27.872 84.2412 27.8521 84.2709 27.7925L84.5017 27.3455C84.5217 27.2891 84.5606 27.2414 84.6117 27.2106C84.6628 27.1798 84.723 27.1678 84.782 27.1767H84.8348C84.9172 27.1767 84.9568 27.1767 84.9699 27.2131C84.9831 27.2495 84.9699 27.2793 84.9271 27.3455L84.6534 27.8025C84.6298 27.8456 84.5949 27.8813 84.5525 27.9059C84.51 27.9304 84.4617 27.9427 84.4127 27.9415V27.9382ZM84.782 27.1899C84.7251 27.1805 84.6667 27.1916 84.6172 27.2213C84.5677 27.251 84.5303 27.2974 84.5116 27.3521L84.2808 27.7958C84.2478 27.8521 84.2412 27.8819 84.2511 27.9018C84.261 27.9217 84.294 27.925 84.3566 27.925H84.4127C84.4593 27.9268 84.5054 27.9157 84.5461 27.8929C84.5869 27.8701 84.6205 27.8366 84.6435 27.7958L84.9172 27.3389C84.9568 27.276 84.9699 27.2396 84.9601 27.2197C84.9502 27.1998 84.9106 27.1899 84.8348 27.1899H84.782Z" fill="#009EDB"/>
<path d="M85.8277 31.4476C85.8277 31.5933 85.8013 31.6231 85.6496 31.6231H85.5936C85.4551 31.6231 85.4155 31.5933 85.4155 31.4476V29.8715C85.4155 29.1828 85.8013 28.8418 86.5597 28.8418C87.3181 28.8418 87.7039 29.2027 87.7039 29.8715V31.4344C87.7039 31.5801 87.6742 31.6099 87.5258 31.6099H87.4599C87.3115 31.6099 87.2851 31.5801 87.2851 31.4344V29.8715C87.2851 29.4279 87.117 29.2292 86.5597 29.2292C86.0025 29.2292 85.8277 29.4345 85.8277 29.8715V31.4476Z" fill="#009EDB"/>
<path d="M87.5246 31.6294H87.4587C87.307 31.6294 87.2773 31.5963 87.2773 31.4473V29.8712C87.2773 29.4077 87.0828 29.2355 86.5585 29.2355C86.0342 29.2355 85.8331 29.4143 85.8331 29.8712V31.4341C85.8331 31.5831 85.8001 31.6162 85.6484 31.6162H85.5924C85.4539 31.6162 85.4077 31.5897 85.4077 31.4341V29.8712C85.4077 29.1825 85.7968 28.8349 86.5585 28.8349C86.8749 28.807 87.1899 28.9018 87.4389 29.0997C87.5353 29.202 87.609 29.3236 87.6551 29.4566C87.7011 29.5897 87.7185 29.731 87.706 29.8712V31.4341C87.706 31.5963 87.6763 31.6294 87.5246 31.6294ZM86.5651 29.2388C87.0993 29.2388 87.2971 29.411 87.2971 29.901V31.4639C87.2971 31.6062 87.3202 31.6327 87.4653 31.6327H87.5312C87.6763 31.6327 87.7027 31.6062 87.7027 31.4639V29.8712C87.7138 29.7326 87.6957 29.5932 87.6497 29.462C87.6037 29.3308 87.5307 29.2108 87.4356 29.1097C87.1905 28.9117 86.8785 28.8168 86.5651 28.8448C86.259 28.8228 85.9555 28.9134 85.7111 29.0997C85.6117 29.2006 85.535 29.3216 85.4861 29.4546C85.4371 29.5877 85.4172 29.7298 85.4275 29.8712V31.4341C85.4275 31.5798 85.4638 31.6029 85.599 31.6029H85.655C85.8034 31.6029 85.8265 31.5764 85.8265 31.4341V29.8712C85.8199 29.4176 86.0276 29.2388 86.5651 29.2388Z" fill="#009EDB"/>
<path d="M90.5488 29.8711C90.5488 30.5101 90.1729 30.8313 89.4145 30.8313C89.2201 30.8216 89.0251 30.8361 88.8342 30.8744C88.7961 30.8815 88.7618 30.9021 88.7376 30.9325C88.7134 30.9629 88.7008 31.001 88.7023 31.0399C88.7023 31.1161 88.7452 31.1657 88.8375 31.1922C89.0284 31.2216 89.2216 31.2327 89.4145 31.2253C89.7364 31.197 90.06 31.2565 90.351 31.3975C90.4434 31.4616 90.5167 31.5496 90.5632 31.6522C90.6096 31.7549 90.6275 31.8682 90.6148 31.9803C90.6299 32.1047 90.613 32.2309 90.5657 32.3468C90.5184 32.4628 90.4421 32.5646 90.3444 32.6425C90.0586 32.7927 89.7358 32.8571 89.4145 32.8279C89.0869 32.8572 88.7577 32.793 88.4649 32.6425C88.3771 32.5752 88.3076 32.4869 88.2627 32.3857C88.2178 32.2845 88.1988 32.1735 88.2077 32.063C88.2004 31.9461 88.2251 31.8293 88.2792 31.7254C88.3332 31.6215 88.4145 31.5345 88.5143 31.4737C88.4446 31.4439 88.3857 31.3933 88.3456 31.3287C88.3055 31.2641 88.2861 31.1887 88.2901 31.1128C88.2901 30.8677 88.4385 30.7254 88.7353 30.6823C88.5821 30.6163 88.4543 30.5022 88.3711 30.3572C88.2879 30.2121 88.2537 30.0439 88.2736 29.8777V29.8115C88.2736 29.2122 88.6957 28.8612 89.4145 28.8612C89.608 28.8578 89.8001 28.895 89.9784 28.9705L90.2916 28.689C90.3839 28.6063 90.4268 28.6063 90.5159 28.689L90.5521 28.7288C90.6444 28.8115 90.6444 28.8546 90.5521 28.944L90.3048 29.1956C90.3874 29.2745 90.452 29.3704 90.4941 29.4767C90.5363 29.583 90.5549 29.6972 90.5488 29.8115V29.8711ZM88.8738 31.5598C88.7905 31.6007 88.7214 31.6659 88.6755 31.7468C88.6297 31.8277 88.6091 31.9206 88.6166 32.0134C88.6166 32.371 88.8177 32.4637 89.4112 32.4637C90.0048 32.4637 90.1993 32.371 90.1993 31.9968C90.1993 31.6227 89.9982 31.5896 89.4112 31.5896C89.2316 31.593 89.0519 31.583 88.8738 31.5598ZM90.1301 29.8049C90.1301 29.4142 89.886 29.2221 89.4112 29.2221C88.9364 29.2221 88.6792 29.4142 88.6792 29.8049V29.8711C88.6792 30.2684 88.8573 30.4671 89.4112 30.4671C89.9652 30.4671 90.1301 30.2684 90.1301 29.8711V29.8049Z" fill="#009EDB"/>
<path d="M89.4148 32.8286C89.0858 32.8585 88.755 32.793 88.4619 32.6399C88.3731 32.5727 88.3026 32.484 88.257 32.3822C88.2115 32.2803 88.1924 32.1685 88.2014 32.0572C88.1959 31.9408 88.221 31.825 88.2743 31.7216C88.3275 31.6181 88.407 31.5305 88.5048 31.4678C88.4368 31.4362 88.3798 31.385 88.341 31.3207C88.3023 31.2564 88.2835 31.182 88.2871 31.1069C88.2871 30.8652 88.4289 30.7195 88.7158 30.6731C88.5669 30.6037 88.4437 30.4889 88.3638 30.345C88.2838 30.2011 88.2512 30.0355 88.2707 29.8718V29.8056C88.2647 29.673 88.2886 29.5407 88.3405 29.4186C88.3925 29.2965 88.4712 29.1877 88.5707 29.1003C88.8151 28.9218 89.1131 28.833 89.4148 28.8487C89.6083 28.8456 89.8003 28.8828 89.9787 28.958L90.2886 28.6798C90.3843 28.5938 90.4304 28.5938 90.5195 28.6798L90.559 28.7163C90.6052 28.7626 90.625 28.7924 90.625 28.8255C90.625 28.8586 90.6085 28.8917 90.559 28.9414L90.315 29.1897C90.3962 29.2693 90.4595 29.3655 90.5005 29.4717C90.5414 29.578 90.5591 29.6919 90.5524 29.8056V29.8718C90.5524 30.5109 90.1699 30.8354 89.4148 30.8354C89.2202 30.8268 89.0253 30.8424 88.8345 30.8817C88.7975 30.8881 88.7642 30.9077 88.7405 30.9369C88.7169 30.9662 88.7046 31.003 88.7059 31.0406C88.7059 31.1135 88.7488 31.1598 88.8411 31.1863C89.0308 31.216 89.223 31.2271 89.4148 31.2194C89.7378 31.1903 90.0626 31.2498 90.3546 31.3916C90.4476 31.4568 90.5215 31.5459 90.5685 31.6496C90.6154 31.7533 90.6338 31.8677 90.6217 31.981C90.6365 32.1057 90.6191 32.2321 90.5711 32.3481C90.5232 32.4641 90.4464 32.5657 90.348 32.6432C90.0614 32.7945 89.7372 32.8589 89.4148 32.8286ZM89.4148 28.8553C88.7059 28.8553 88.2805 29.2096 88.2805 29.8023V29.8685C88.2611 30.033 88.2948 30.1993 88.3767 30.343C88.4587 30.4867 88.5845 30.6001 88.7356 30.6665C88.4421 30.7095 88.297 30.8453 88.297 31.0903C88.2939 31.1653 88.3133 31.2395 88.3527 31.3033C88.3921 31.367 88.4497 31.4174 88.518 31.4479C88.4193 31.5081 88.3389 31.5941 88.2854 31.6968C88.2319 31.7996 88.2075 31.915 88.2146 32.0307C88.2065 32.1398 88.2254 32.2492 88.2697 32.3492C88.3141 32.4491 88.3823 32.5365 88.4685 32.6035C88.7592 32.7568 89.0879 32.8223 89.4148 32.7922C89.7354 32.8215 90.0575 32.7559 90.3414 32.6035C90.4393 32.5259 90.5154 32.424 90.5623 32.3079C90.6091 32.1918 90.625 32.0654 90.6085 31.9413C90.6209 31.8301 90.6033 31.7176 90.5575 31.6156C90.5116 31.5137 90.4393 31.426 90.348 31.3618C90.0575 31.223 89.7353 31.1647 89.4148 31.193C89.2219 31.1986 89.0288 31.1875 88.8378 31.1598C88.7422 31.13 88.696 31.0804 88.696 31.0009C88.6951 30.9609 88.7081 30.9218 88.7328 30.8904C88.7575 30.859 88.7923 30.8372 88.8312 30.8287C89.0233 30.7909 89.2193 30.7764 89.4148 30.7857C89.7164 30.8082 90.0163 30.7239 90.2623 30.5473C90.3592 30.4567 90.4347 30.3454 90.4832 30.2216C90.5317 30.0979 90.552 29.9648 90.5425 29.8321V29.7659C90.5486 29.6524 90.5302 29.539 90.4887 29.4333C90.4471 29.3276 90.3834 29.2321 90.3018 29.1533L90.5491 28.8984C90.5953 28.852 90.6151 28.8222 90.6151 28.7924C90.6151 28.7626 90.5953 28.7361 90.5491 28.6931L90.5129 28.6533C90.4271 28.5739 90.3876 28.5739 90.2952 28.6533L89.9655 28.9381C89.7892 28.8744 89.6019 28.8474 89.4148 28.8586V28.8553ZM89.4148 32.4677C88.8015 32.4677 88.6136 32.3618 88.6136 32.0108C88.6062 31.9172 88.6271 31.8235 88.6736 31.7419C88.72 31.6604 88.7899 31.5949 88.8741 31.5539C89.0526 31.5732 89.232 31.582 89.4115 31.5804C89.9985 31.5804 90.2062 31.6433 90.2062 31.9942C90.2062 32.3452 90.015 32.471 89.4148 32.471V32.4677ZM88.8741 31.5671C88.7923 31.6075 88.7245 31.6718 88.6798 31.7516C88.6351 31.8314 88.6154 31.9229 88.6235 32.0141C88.6235 32.3452 88.8081 32.4611 89.4115 32.4611C90.015 32.4611 90.193 32.3518 90.193 31.9976C90.193 31.6433 89.9985 31.5969 89.4115 31.5969C89.2319 31.5993 89.0523 31.5894 88.8741 31.5671ZM89.4115 30.4745C88.8873 30.4745 88.6762 30.299 88.6762 29.8718V29.8056C88.6762 29.4116 88.9169 29.2162 89.4115 29.2162C89.9061 29.2162 90.1337 29.4149 90.1337 29.8056V29.8718C90.137 30.3056 89.9358 30.4745 89.4148 30.4745H89.4115ZM89.4115 29.2295C88.9235 29.2295 88.6861 29.4182 88.6861 29.8056V29.8718C88.6861 30.2923 88.8972 30.4612 89.4115 30.4612C89.9259 30.4612 90.1238 30.2957 90.1238 29.8718V29.8056C90.1271 29.4248 89.8864 29.2295 89.4148 29.2295H89.4115Z" fill="#009EDB"/>
<path d="M95.3941 28.4483C95.3941 28.5609 95.3545 28.6006 95.2391 28.6006H94.9094V30.5343C94.9094 31.3003 94.5093 31.6832 93.7092 31.6832C92.8848 31.6832 92.5122 31.2992 92.5122 30.5343V30.0211C92.5122 29.2463 92.8881 28.8622 93.6432 28.8622C93.8091 28.8418 93.9774 28.8685 94.129 28.9393C94.2805 29.0101 94.4092 29.1222 94.5005 29.2628V28.6006H93.7553C93.6267 28.6006 93.6003 28.5609 93.6003 28.4483V28.4019C93.6003 28.2861 93.6267 28.2496 93.7553 28.2496H94.5005V27.945C94.5005 27.796 94.5269 27.7695 94.6753 27.7695H94.7379C94.8698 27.7695 94.9094 27.796 94.9094 27.945V28.2496H95.2391C95.3545 28.2496 95.3941 28.2861 95.3941 28.4019V28.4483ZM92.9211 30.5211C92.9211 31.0508 93.1024 31.2892 93.7092 31.2892C94.3159 31.2892 94.5005 31.0508 94.5005 30.5211V30.0111C94.5005 29.4814 94.306 29.243 93.7092 29.243C93.1123 29.243 92.9211 29.4814 92.9211 30.0111V30.5211Z" fill="#009EDB"/>
<path d="M93.7083 31.6819C93.3781 31.7092 93.0503 31.6059 92.7949 31.3938C92.6907 31.2776 92.611 31.1415 92.5605 30.9935C92.5101 30.8456 92.49 30.6889 92.5015 30.5329V30.0197C92.4776 29.7022 92.5795 29.3881 92.785 29.1456C92.9003 29.0414 93.0354 28.9619 93.1822 28.9118C93.3291 28.8617 93.4845 28.8421 93.6391 28.8542C93.8022 28.8352 93.9674 28.8609 94.1171 28.9285C94.2669 28.9961 94.3957 29.1032 94.4898 29.2383V28.6125H93.7545C93.6292 28.6125 93.5929 28.5761 93.5929 28.4536V28.4072C93.5929 28.2847 93.6292 28.2483 93.7545 28.2483H94.4799V27.9536C94.4799 27.798 94.5096 27.7715 94.6612 27.7715H94.7239C94.8558 27.7715 94.9019 27.798 94.9019 27.9536V28.2483H95.2317C95.3504 28.2483 95.39 28.2913 95.39 28.4072V28.4536C95.39 28.5695 95.3504 28.6125 95.2317 28.6125H94.9019V30.5329C94.9151 31.2945 94.5096 31.6819 93.7083 31.6819ZM93.6423 28.8575C93.4896 28.8466 93.3363 28.8664 93.1913 28.9159C93.0463 28.9653 92.9127 29.0434 92.7982 29.1456C92.5931 29.3857 92.4911 29.6976 92.5146 30.0131V30.5329C92.5018 30.6882 92.521 30.8445 92.5709 30.992C92.6208 31.1396 92.7005 31.2752 92.8048 31.3905C93.0679 31.5778 93.3825 31.6784 93.705 31.6784C94.0275 31.6784 94.3421 31.5778 94.6052 31.3905C94.7113 31.276 94.7927 31.1408 94.8444 30.9932C94.896 30.8456 94.9167 30.6889 94.9052 30.5329V28.5993H95.235C95.3471 28.5993 95.3834 28.5628 95.3834 28.4536V28.4072C95.3834 28.2946 95.3471 28.2582 95.235 28.2582H94.9052V27.9536C94.9052 27.8046 94.8657 27.7814 94.7371 27.7814H94.6744C94.5293 27.7814 94.5063 27.8046 94.5063 27.9536V28.2582H93.7545C93.6259 28.2582 93.6061 28.2979 93.6061 28.4072V28.4536C93.6061 28.5595 93.6259 28.5993 93.7545 28.5993H94.5063V29.2847V29.2648C94.415 29.1221 94.2856 29.0082 94.1327 28.9362C93.9799 28.8641 93.8099 28.8369 93.6423 28.8575ZM93.7083 31.2912C93.128 31.2912 92.9136 31.0826 92.9136 30.5197V30.0098C92.9136 29.4535 93.1379 29.2383 93.7083 29.2383C94.2787 29.2383 94.5063 29.4535 94.5063 30.0098V30.5329C94.5063 31.076 94.282 31.2912 93.7083 31.2912ZM93.7083 29.2482C93.1444 29.2482 92.9268 29.4601 92.9268 30.0098V30.5329C92.9268 31.0892 93.1379 31.2945 93.7083 31.2945C94.2787 31.2945 94.4931 31.0892 94.4931 30.5329V30.023C94.4799 29.4535 94.282 29.2482 93.7083 29.2482Z" fill="#009EDB"/>
<path d="M95.4688 30.5327V30.0228C95.4688 29.2513 95.8677 28.8672 96.6723 28.8672C97.2823 28.8672 97.6252 29.0692 97.7802 29.4665C97.8692 29.4268 97.9484 29.3208 97.9484 29.0261C97.9484 28.9433 97.9781 28.9202 98.0704 28.9202H98.166C98.2583 28.9202 98.2814 28.9433 98.2814 29.0261C98.2814 29.4731 98.1034 29.6883 97.8528 29.7645C97.8637 29.8501 97.8692 29.9364 97.8692 30.0228V30.5327C97.8692 31.3053 97.4703 31.6904 96.6723 31.6882C95.7985 31.675 95.4688 31.2744 95.4688 30.5327ZM97.4472 30.0228C97.4472 29.493 97.2592 29.2546 96.6624 29.2546C96.0656 29.2546 95.8677 29.493 95.8677 30.0228V30.5327C95.8677 31.0624 96.0689 31.3008 96.6624 31.3008C97.2559 31.3008 97.4472 31.0492 97.4472 30.5327V30.0228Z" fill="#009EDB"/>
<path d="M96.6656 31.6819C95.8413 31.6819 95.4555 31.3143 95.4555 30.5197V30.0098C95.4434 29.8515 95.4641 29.6923 95.5163 29.5425C95.5685 29.3926 95.6511 29.2552 95.7589 29.139C96.0115 28.9264 96.3371 28.8218 96.6656 28.8476C97.2625 28.8476 97.6153 29.0363 97.7769 29.4436C97.8824 29.3939 97.9351 29.2548 97.9351 29.0131C97.9351 28.9271 97.9648 28.9006 98.0637 28.9006H98.1594C98.255 28.9006 98.2814 28.9271 98.2814 29.0131C98.2814 29.4138 98.1363 29.6754 97.8494 29.7548C97.8564 29.8397 97.8564 29.9249 97.8494 30.0098V30.5329C97.8659 31.2912 97.4636 31.6819 96.6656 31.6819ZM96.6656 28.8575C96.3399 28.8337 96.0174 28.9368 95.7655 29.1456C95.6597 29.2616 95.5789 29.3981 95.5278 29.5468C95.4768 29.6954 95.4566 29.853 95.4687 30.0098V30.5329C95.4687 31.3177 95.8479 31.6852 96.6656 31.6852C96.9893 31.7083 97.3094 31.6052 97.5592 31.3971C97.665 31.2811 97.7458 31.1446 97.7969 30.9959C97.8479 30.8473 97.8681 30.6897 97.856 30.5329V30.023C97.8559 29.9367 97.8504 29.8504 97.8395 29.7648C98.1231 29.6787 98.2649 29.4336 98.2649 29.033C98.2649 28.9535 98.2451 28.9337 98.1561 28.9337H98.0604C97.9681 28.9337 97.9417 28.9568 97.9417 29.033C97.9417 29.2813 97.8857 29.427 97.7736 29.4767C97.612 29.0496 97.2592 28.8575 96.6656 28.8575ZM96.6656 31.2912C96.0919 31.2912 95.8677 31.0759 95.8677 30.5197V30.0098C95.8677 29.4469 96.082 29.2383 96.6656 29.2383C97.2493 29.2383 97.457 29.4469 97.457 30.0098V30.5329C97.4471 31.0826 97.2427 31.2912 96.6656 31.2912ZM96.6656 29.2482C96.0919 29.2482 95.8776 29.4535 95.8776 30.0098V30.5329C95.8776 31.0793 96.0985 31.2945 96.6656 31.2945C97.2328 31.2945 97.4471 31.0892 97.4471 30.5329V30.023C97.4471 29.4535 97.2361 29.2482 96.6656 29.2482Z" fill="#009EDB"/>
<path d="M98.855 31.4476C98.855 31.5933 98.8254 31.6231 98.677 31.6231H98.6209C98.4824 31.6231 98.4429 31.5933 98.4429 31.4476V29.8715C98.4429 29.1828 98.8254 28.8418 99.5871 28.8418C100.349 28.8418 100.744 29.2093 100.744 29.8715V31.4344C100.744 31.5801 100.715 31.6099 100.566 31.6099H100.5C100.352 31.6099 100.326 31.5801 100.326 31.4344V29.8715C100.326 29.4279 100.158 29.2292 99.6003 29.2292C99.043 29.2292 98.8682 29.4345 98.8682 29.8715L98.855 31.4476Z" fill="#009EDB"/>
<path d="M100.553 31.6296H100.487C100.336 31.6296 100.306 31.5965 100.306 31.4475V29.8714C100.306 29.4078 100.111 29.2357 99.5872 29.2357C99.0629 29.2357 98.8618 29.4145 98.8618 29.8714V31.4342C98.8618 31.5832 98.8288 31.6163 98.6771 31.6163H98.6177C98.4826 31.6163 98.4364 31.5898 98.4364 31.4342V29.8714C98.4364 29.1827 98.8255 28.835 99.5872 28.835C99.9026 28.8066 100.217 28.9015 100.464 29.0999C100.563 29.201 100.639 29.3221 100.688 29.4552C100.736 29.5883 100.755 29.7302 100.745 29.8714V31.4342C100.745 31.5965 100.705 31.6296 100.553 31.6296ZM99.5872 29.239C100.118 29.239 100.316 29.4111 100.316 29.9012V31.464C100.316 31.6064 100.342 31.6329 100.487 31.6329H100.553C100.698 31.6329 100.725 31.6064 100.725 31.464V29.8714C100.736 29.7327 100.718 29.5933 100.672 29.4621C100.626 29.3309 100.553 29.2109 100.458 29.1098C100.213 28.9118 99.9005 28.8169 99.5872 28.8449C99.2811 28.8226 98.9774 28.9133 98.7332 29.0999C98.6314 29.1995 98.5522 29.32 98.501 29.4532C98.4498 29.5863 98.4278 29.7289 98.4364 29.8714V31.4342C98.4364 31.5799 98.4727 31.6031 98.6046 31.6031H98.6639C98.8123 31.6031 98.8354 31.5766 98.8354 31.4342V29.8714C98.8486 29.4178 99.0563 29.239 99.5872 29.239Z" fill="#009EDB"/>
<path d="M105.031 29.8711C105.031 30.5101 104.655 30.8313 103.897 30.8313C103.702 30.8218 103.508 30.8363 103.317 30.8744C103.279 30.8815 103.244 30.9021 103.22 30.9325C103.196 30.9629 103.183 31.001 103.185 31.0399C103.185 31.1161 103.228 31.1657 103.323 31.1922C103.513 31.2217 103.705 31.2328 103.897 31.2253C104.219 31.197 104.542 31.2565 104.833 31.3975C104.926 31.4616 104.999 31.5496 105.046 31.6522C105.092 31.7549 105.11 31.8682 105.097 31.9803C105.112 32.1043 105.095 32.2302 105.049 32.346C105.002 32.4618 104.927 32.5638 104.83 32.6425C104.543 32.7927 104.219 32.857 103.897 32.8279C103.569 32.8572 103.24 32.793 102.947 32.6425C102.86 32.5752 102.79 32.4869 102.745 32.3857C102.7 32.2845 102.681 32.1735 102.69 32.063C102.685 31.9461 102.711 31.8299 102.766 31.7263C102.82 31.6228 102.901 31.5356 103 31.4737C102.93 31.4439 102.871 31.3933 102.831 31.3287C102.791 31.2641 102.772 31.1887 102.776 31.1128C102.776 30.8677 102.921 30.7254 103.218 30.6823C103.065 30.6163 102.937 30.5022 102.854 30.3572C102.77 30.2121 102.736 30.0439 102.756 29.8777V29.8115C102.756 29.2122 103.178 28.8612 103.897 28.8612C104.09 28.8571 104.283 28.8943 104.461 28.9705L104.774 28.689C104.87 28.6063 104.909 28.6063 105.002 28.689L105.038 28.7288C105.127 28.8115 105.127 28.8546 105.038 28.944L104.791 29.1956C104.872 29.2752 104.936 29.3712 104.977 29.4775C105.019 29.5837 105.037 29.6976 105.031 29.8115V29.8711ZM103.383 31.5598C103.3 31.6014 103.231 31.6667 103.186 31.7474C103.14 31.8282 103.119 31.9207 103.125 32.0134C103.125 32.371 103.327 32.4637 103.92 32.4637C104.514 32.4637 104.708 32.371 104.708 31.9968C104.708 31.6227 104.507 31.5896 103.92 31.5896C103.74 31.593 103.561 31.583 103.383 31.5598ZM104.639 29.8049C104.639 29.4142 104.398 29.2221 103.92 29.2221C103.442 29.2221 103.191 29.4142 103.191 29.8049V29.8711C103.191 30.2684 103.366 30.4671 103.92 30.4671C104.474 30.4671 104.639 30.2684 104.639 29.8711V29.8049Z" fill="#009EDB"/>
<path d="M103.907 32.8266C103.578 32.856 103.247 32.7905 102.954 32.6379C102.865 32.5707 102.795 32.4821 102.749 32.3802C102.704 32.2783 102.685 32.1665 102.694 32.0552C102.688 31.9388 102.713 31.8231 102.766 31.7196C102.82 31.6161 102.899 31.5286 102.997 31.4658C102.929 31.4342 102.872 31.383 102.833 31.3187C102.794 31.2544 102.776 31.18 102.779 31.1049C102.779 30.8632 102.924 30.7175 103.208 30.6711C103.059 30.6018 102.936 30.4869 102.856 30.343C102.776 30.1991 102.743 30.0335 102.763 29.8698V29.8036C102.757 29.671 102.781 29.5387 102.833 29.4166C102.885 29.2945 102.963 29.1857 103.063 29.0984C103.307 28.9199 103.605 28.831 103.907 28.8467C104.1 28.8436 104.292 28.8808 104.471 28.956L104.781 28.6778C104.876 28.5918 104.923 28.5918 105.015 28.6778L105.051 28.7143C105.101 28.7606 105.12 28.7904 105.12 28.8235C105.12 28.8566 105.101 28.8898 105.051 28.9394L104.807 29.1878C104.889 29.2672 104.953 29.3632 104.994 29.4695C105.036 29.5757 105.054 29.6897 105.048 29.8036V29.8698C105.048 30.5089 104.662 30.8334 103.907 30.8334C103.712 30.8248 103.517 30.8404 103.327 30.8797C103.29 30.8868 103.258 30.9067 103.235 30.9359C103.212 30.965 103.2 31.0015 103.201 31.0387C103.201 31.1115 103.241 31.1579 103.333 31.1843C103.523 31.2138 103.715 31.2249 103.907 31.2175C104.23 31.1883 104.555 31.2478 104.847 31.3896C104.94 31.4543 105.015 31.5434 105.062 31.6472C105.109 31.751 105.127 31.8657 105.114 31.979C105.128 32.1034 105.111 32.2294 105.064 32.3452C105.017 32.4611 104.941 32.5629 104.843 32.6412C104.555 32.7918 104.23 32.8562 103.907 32.8266ZM103.907 28.8533C103.198 28.8533 102.773 29.2076 102.773 29.8003V29.8665C102.753 30.0314 102.787 30.1983 102.87 30.3422C102.952 30.486 103.079 30.5991 103.231 30.6645H103.251H103.228C102.934 30.7075 102.789 30.8433 102.789 31.0883C102.786 31.1633 102.805 31.2375 102.845 31.3013C102.884 31.365 102.942 31.4154 103.01 31.4459C102.911 31.5054 102.829 31.5912 102.775 31.694C102.721 31.7968 102.696 31.9126 102.703 32.0287C102.695 32.1378 102.714 32.2472 102.759 32.3472C102.803 32.4471 102.871 32.5345 102.957 32.6015C103.248 32.7548 103.577 32.8203 103.904 32.7902C104.225 32.819 104.548 32.7534 104.834 32.6015C104.931 32.5234 105.007 32.4215 105.054 32.3055C105.1 32.1895 105.117 32.0634 105.101 31.9393C105.113 31.8277 105.096 31.7148 105.049 31.6126C105.003 31.5105 104.929 31.4231 104.837 31.3598C104.546 31.221 104.224 31.1627 103.904 31.191C103.711 31.1966 103.518 31.1855 103.327 31.1579C103.231 31.1281 103.185 31.0784 103.185 30.9989C103.184 30.9589 103.197 30.9199 103.222 30.8884C103.246 30.857 103.281 30.8352 103.32 30.8267C103.512 30.7891 103.708 30.7746 103.904 30.7837C104.205 30.8062 104.505 30.7219 104.751 30.5453C104.843 30.4595 104.916 30.3547 104.964 30.2382C105.013 30.1216 105.036 29.996 105.031 29.8698V29.8036C105.037 29.6905 105.019 29.5774 104.978 29.4718C104.937 29.3662 104.874 29.2705 104.794 29.1911L105.041 28.9361C105.091 28.8898 105.107 28.86 105.107 28.8302C105.107 28.8004 105.087 28.7739 105.041 28.7308L105.005 28.6911C104.919 28.6116 104.88 28.6116 104.791 28.6911L104.461 28.9758C104.287 28.8978 104.098 28.8572 103.907 28.8566V28.8533ZM103.907 32.4657C103.294 32.4657 103.106 32.3598 103.106 32.0088C103.098 31.9147 103.119 31.8206 103.167 31.7389C103.214 31.6573 103.284 31.592 103.37 31.5519C103.547 31.5712 103.725 31.5801 103.904 31.5784C104.491 31.5784 104.698 31.6413 104.698 31.9923C104.698 32.3432 104.435 32.469 103.907 32.469V32.4657ZM103.383 31.5651C103.3 31.605 103.232 31.6691 103.187 31.749C103.141 31.8288 103.121 31.9206 103.129 32.0121C103.129 32.3432 103.313 32.4591 103.917 32.4591C104.52 32.4591 104.702 32.3499 104.702 31.9956C104.702 31.6413 104.504 31.5949 103.917 31.5949C103.738 31.5975 103.56 31.5875 103.383 31.5651ZM103.917 30.4725C103.396 30.4725 103.182 30.297 103.182 29.8698V29.8036C103.182 29.4096 103.422 29.2142 103.917 29.2142C104.412 29.2142 104.642 29.4129 104.642 29.8036V29.8698C104.632 30.3036 104.428 30.4725 103.907 30.4725H103.917ZM103.917 29.2275C103.429 29.2275 103.191 29.4162 103.191 29.8036V29.8698C103.191 30.2904 103.403 30.4592 103.917 30.4592C104.431 30.4592 104.629 30.2937 104.629 29.8698V29.8036C104.619 29.4228 104.372 29.2275 103.907 29.2275H103.917Z" fill="#009EDB"/>
<path d="M106.136 28.0609C106.136 28.0958 106.13 28.1304 106.117 28.1628C106.103 28.1951 106.084 28.2245 106.059 28.2492C106.035 28.2739 106.006 28.2933 105.973 28.3065C105.941 28.3197 105.907 28.3262 105.872 28.3258C105.835 28.3299 105.797 28.3262 105.761 28.3147C105.725 28.3032 105.692 28.2843 105.664 28.2591C105.636 28.2339 105.614 28.2031 105.598 28.1687C105.583 28.1343 105.575 28.0969 105.575 28.0592C105.575 28.0215 105.583 27.9842 105.598 27.9497C105.614 27.9153 105.636 27.8845 105.664 27.8593C105.692 27.8342 105.725 27.8152 105.761 27.8037C105.797 27.7923 105.835 27.7885 105.872 27.7927C105.907 27.7927 105.941 27.7996 105.974 27.8131C106.006 27.8267 106.035 27.8465 106.06 27.8714C106.084 27.8964 106.104 27.926 106.117 27.9585C106.13 27.991 106.136 28.0258 106.136 28.0609ZM105.664 29.084C105.664 28.9482 105.691 28.9085 105.839 28.9085H105.898C106.033 28.9085 106.073 28.9482 106.073 29.084V31.4481C106.073 31.5938 106.033 31.6236 105.898 31.6236H105.839C105.691 31.6236 105.664 31.5938 105.664 31.4481V29.084Z" fill="#009EDB"/>
<path d="M105.899 31.6326H105.839C105.688 31.6326 105.658 31.6028 105.658 31.4505V29.0864C105.658 28.9506 105.684 28.9043 105.839 28.9043H105.899C106.037 28.9043 106.08 28.9473 106.08 29.0864V31.4505C106.08 31.6061 106.021 31.6326 105.899 31.6326ZM105.839 28.9175C105.691 28.9175 105.671 28.954 105.671 29.0864V31.4505C105.671 31.5962 105.694 31.6194 105.839 31.6194H105.899C106.027 31.6194 106.067 31.5962 106.067 31.4505V29.0864C106.067 28.954 106.03 28.9175 105.899 28.9175H105.839ZM105.872 28.3348C105.818 28.3354 105.764 28.3198 105.719 28.2898C105.673 28.2599 105.638 28.217 105.617 28.1667C105.596 28.1163 105.59 28.0608 105.6 28.0072C105.611 27.9536 105.637 27.9043 105.675 27.8656C105.714 27.827 105.763 27.8008 105.816 27.7903C105.87 27.7798 105.925 27.7855 105.975 27.8067C106.025 27.8279 106.068 27.8637 106.098 27.9094C106.128 27.9551 106.143 28.0086 106.143 28.0633C106.143 28.099 106.136 28.1346 106.123 28.1677C106.109 28.2008 106.09 28.2309 106.064 28.2562C106.039 28.2815 106.009 28.3015 105.976 28.315C105.943 28.3285 105.908 28.3352 105.872 28.3348ZM105.872 27.7984C105.837 27.7979 105.802 27.8044 105.77 27.8175C105.737 27.8306 105.707 27.85 105.682 27.8746C105.657 27.8992 105.637 27.9285 105.623 27.9609C105.61 27.9933 105.602 28.028 105.602 28.0633C105.602 28.0982 105.61 28.1327 105.623 28.1647C105.637 28.1967 105.658 28.2256 105.683 28.2497C105.708 28.2737 105.738 28.2925 105.77 28.3048C105.803 28.3172 105.837 28.3229 105.872 28.3215C105.906 28.322 105.94 28.3156 105.971 28.3028C106.003 28.29 106.031 28.271 106.055 28.2469C106.079 28.2228 106.098 28.1942 106.111 28.1626C106.123 28.1311 106.13 28.0973 106.129 28.0633C106.13 28.0289 106.124 27.9948 106.111 27.9629C106.098 27.931 106.079 27.9019 106.055 27.8773C106.032 27.8527 106.003 27.8331 105.972 27.8196C105.94 27.806 105.906 27.7988 105.872 27.7984Z" fill="#009EDB"/>
<path d="M108.84 30.8078C108.84 31.417 108.484 31.6753 107.693 31.6753C107.066 31.6753 106.664 31.4237 106.664 30.8508C106.664 30.278 107.037 30.0462 107.782 30.0462H108.441V29.7151C108.441 29.3443 108.191 29.2152 107.723 29.2152C107.52 29.2121 107.317 29.2332 107.119 29.2781C106.99 29.3046 106.948 29.2781 106.948 29.139V29.096C106.948 28.9668 106.981 28.937 107.113 28.9072C107.307 28.8698 107.505 28.8521 107.703 28.8542C108.471 28.8542 108.854 29.139 108.854 29.7151L108.84 30.8078ZM108.428 30.3707H107.788C107.3 30.3707 107.076 30.5032 107.076 30.8508C107.076 31.1985 107.277 31.3177 107.69 31.3177C108.194 31.3177 108.428 31.2018 108.428 30.7912V30.3707ZM107.788 28.5993C107.686 28.5993 107.673 28.5596 107.657 28.4933C107.657 28.341 107.739 28.2748 107.904 28.0993C107.943 28.0682 107.967 28.023 107.973 27.9735C107.973 27.8775 107.93 27.8344 107.877 27.8311C107.794 27.8272 107.71 27.8431 107.633 27.8775C107.62 27.8858 107.605 27.8908 107.59 27.8922C107.574 27.8936 107.559 27.8913 107.544 27.8855C107.53 27.8797 107.517 27.8706 107.507 27.8588C107.496 27.8471 107.489 27.833 107.485 27.8179L107.462 27.7748C107.432 27.6921 107.485 27.6623 107.541 27.6358C107.645 27.5903 107.758 27.5677 107.871 27.5695C107.924 27.5652 107.978 27.5728 108.027 27.5918C108.077 27.6108 108.122 27.6408 108.159 27.6795C108.196 27.7181 108.224 27.7646 108.241 27.8155C108.258 27.8663 108.263 27.9203 108.257 27.9735C108.257 28.2152 107.927 28.3046 107.927 28.4933C107.924 28.5195 107.913 28.544 107.895 28.5632C107.878 28.5824 107.854 28.595 107.828 28.5993H107.788Z" fill="#009EDB"/>
<path d="M107.693 31.6803C107.017 31.6803 106.657 31.3922 106.657 30.8492C106.657 30.3062 107.003 30.0413 107.782 30.0413H108.421V29.7102C108.421 29.379 108.21 29.2168 107.709 29.2168C107.507 29.2137 107.306 29.2337 107.109 29.2764C107.036 29.2764 106.994 29.2764 106.967 29.2764C106.951 29.2585 106.94 29.2374 106.933 29.2145C106.926 29.1917 106.924 29.1676 106.928 29.144V29.1009C106.928 28.9718 106.957 28.9354 107.096 28.9056C107.291 28.8678 107.49 28.85 107.689 28.8526C108.458 28.8526 108.847 29.144 108.847 29.7201V30.8128C108.847 31.4121 108.491 31.6803 107.693 31.6803ZM107.782 30.0512C107.013 30.0512 106.67 30.2962 106.67 30.8492C106.67 31.4021 107.023 31.6703 107.693 31.6703C107.996 31.6947 108.299 31.6229 108.56 31.465C108.656 31.3859 108.732 31.2841 108.781 31.1686C108.829 31.0531 108.848 30.9275 108.837 30.8028V29.7102C108.844 29.5878 108.822 29.4654 108.772 29.3535C108.722 29.2416 108.646 29.1436 108.55 29.0678C108.293 28.9068 107.992 28.8315 107.689 28.8526C107.491 28.851 107.293 28.8699 107.099 28.9089C106.967 28.9354 106.938 28.9685 106.938 29.091V29.134C106.934 29.1559 106.936 29.1781 106.942 29.1993C106.948 29.2204 106.959 29.24 106.974 29.2565C106.997 29.2797 107.04 29.2797 107.106 29.2565C107.304 29.2139 107.506 29.1939 107.709 29.1969C108.217 29.1969 108.435 29.3459 108.435 29.7002V30.0313L107.782 30.0512ZM107.689 31.3227C107.274 31.3227 107.069 31.167 107.069 30.8492C107.069 30.5313 107.284 30.3658 107.788 30.3658H108.448V30.7896C108.435 31.2333 108.151 31.3227 107.689 31.3227ZM107.788 30.3757C107.294 30.3757 107.083 30.5181 107.083 30.8492C107.083 31.1803 107.28 31.3094 107.689 31.3094C108.223 31.3094 108.421 31.1704 108.421 30.7896V30.3757H107.788ZM107.788 28.6043C107.679 28.6043 107.67 28.5612 107.653 28.495C107.637 28.3625 107.702 28.2963 107.825 28.1639C107.848 28.1358 107.873 28.1092 107.9 28.0844C107.95 28.0314 107.97 27.9983 107.97 27.9619C107.97 27.8659 107.92 27.8261 107.874 27.8228H107.851C107.777 27.8235 107.704 27.8404 107.637 27.8725C107.623 27.8807 107.607 27.8856 107.591 27.8868C107.575 27.8879 107.559 27.8854 107.544 27.8793C107.529 27.8732 107.515 27.8638 107.505 27.8517C107.494 27.8396 107.486 27.8252 107.482 27.8096L107.458 27.7665C107.426 27.6738 107.488 27.644 107.541 27.6209C107.644 27.5735 107.757 27.5508 107.871 27.5546C107.925 27.549 107.979 27.5559 108.03 27.5746C108.081 27.5933 108.127 27.6235 108.164 27.6628C108.202 27.7021 108.23 27.7494 108.247 27.8013C108.263 27.8531 108.268 27.908 108.26 27.9619C108.252 28.0234 108.232 28.0827 108.2 28.1358C108.169 28.1889 108.126 28.2346 108.075 28.2698C108.003 28.3394 107.933 28.4023 107.927 28.4851C107.923 28.5121 107.911 28.5373 107.892 28.557C107.873 28.5766 107.848 28.5897 107.821 28.5943L107.788 28.6043ZM107.851 27.8228H107.877C107.927 27.8228 107.979 27.8659 107.979 27.9718C107.977 27.9971 107.969 28.0215 107.956 28.0437C107.944 28.0659 107.927 28.0853 107.907 28.101L107.831 28.1804C107.712 28.2996 107.65 28.3659 107.663 28.4917C107.663 28.5579 107.689 28.591 107.788 28.591H107.815C107.839 28.587 107.862 28.5751 107.879 28.5572C107.896 28.5393 107.907 28.5163 107.91 28.4917C107.933 28.4021 107.987 28.3236 108.062 28.2698C108.111 28.236 108.153 28.1918 108.185 28.1405C108.216 28.0891 108.236 28.0316 108.243 27.9718C108.249 27.9196 108.244 27.8668 108.227 27.817C108.21 27.7672 108.183 27.7217 108.147 27.6838C108.11 27.6458 108.066 27.6164 108.017 27.5975C107.969 27.5786 107.916 27.5708 107.864 27.5745C107.751 27.5705 107.638 27.5931 107.534 27.6407C107.472 27.6705 107.432 27.697 107.458 27.7699L107.482 27.8129C107.486 27.8271 107.493 27.8402 107.503 27.8512C107.513 27.8622 107.525 27.8709 107.538 27.8766C107.552 27.8824 107.567 27.8849 107.581 27.8842C107.596 27.8835 107.61 27.8795 107.623 27.8725C107.694 27.8389 107.772 27.8219 107.851 27.8228Z" fill="#009EDB"/>
<path d="M109.836 31.4476C109.836 31.5933 109.806 31.6231 109.657 31.6231H109.598C109.46 31.6231 109.423 31.5933 109.423 31.4476V29.8715C109.423 29.1828 109.806 28.8418 110.568 28.8418C111.329 28.8418 111.708 29.2027 111.708 29.8715V31.4344C111.708 31.5801 111.682 31.6099 111.534 31.6099H111.468C111.319 31.6099 111.29 31.5801 111.29 31.4344V29.8715C111.29 29.4279 111.121 29.2292 110.568 29.2292C110.014 29.2292 109.836 29.4345 109.836 29.8715V31.4476Z" fill="#009EDB"/>
<path d="M111.534 31.6293H111.468C111.316 31.6293 111.287 31.5962 111.287 31.4472V29.8711C111.287 29.4075 111.092 29.2353 110.568 29.2353C110.044 29.2353 109.839 29.4141 109.839 29.8711V31.4339C109.839 31.5829 109.809 31.616 109.658 31.616H109.598C109.463 31.616 109.417 31.5895 109.417 31.4339V29.8711C109.417 29.1824 109.803 28.8347 110.568 28.8347C110.883 28.8073 111.197 28.9021 111.445 29.0996C111.542 29.2015 111.616 29.3231 111.663 29.4561C111.709 29.5891 111.727 29.7306 111.715 29.8711V31.4339C111.715 31.5962 111.686 31.6293 111.534 31.6293ZM110.568 29.2387C111.099 29.2387 111.297 29.4108 111.297 29.9009V31.4637C111.297 31.6061 111.323 31.6326 111.468 31.6326H111.534C111.679 31.6326 111.702 31.6061 111.702 31.4637V29.8711C111.714 29.7327 111.696 29.5934 111.651 29.4622C111.605 29.331 111.533 29.2109 111.438 29.1095C111.193 28.9122 110.881 28.8173 110.568 28.8446C110.262 28.8217 109.958 28.9124 109.714 29.0996C109.614 29.2001 109.536 29.321 109.487 29.4541C109.437 29.5872 109.417 29.7294 109.427 29.8711V31.4339C109.427 31.5796 109.466 31.6028 109.598 31.6028H109.648C109.793 31.6028 109.819 31.5763 109.819 31.4339V29.8711C109.829 29.4175 110.037 29.2387 110.568 29.2387Z" fill="#009EDB"/>
<path d="M113.868 27.945C113.868 27.796 113.904 27.7695 114.04 27.7695H114.102C114.247 27.7695 114.277 27.796 114.277 27.945V29.2297C114.376 29.0981 114.508 28.9945 114.658 28.929C114.809 28.8634 114.974 28.8381 115.138 28.8556C115.814 28.8556 116.153 29.1867 116.153 29.8191V31.4482C116.153 31.5938 116.124 31.6236 115.978 31.6236H115.913C115.767 31.6236 115.741 31.5938 115.741 31.4482V29.8721C115.741 29.435 115.547 29.2463 115.039 29.2463C114.531 29.2463 114.28 29.4582 114.28 29.9648V31.4515C114.28 31.5972 114.251 31.627 114.106 31.627H114.043C113.908 31.627 113.871 31.5972 113.871 31.4515L113.868 27.945Z" fill="#009EDB"/>
<path d="M115.979 31.631H115.913C115.765 31.631 115.735 31.5979 115.735 31.4489V29.8728C115.735 29.4358 115.534 29.257 115.04 29.257C114.545 29.257 114.288 29.4689 114.288 29.9689V31.4555C114.288 31.6045 114.258 31.6377 114.106 31.6377H114.044C113.912 31.6377 113.866 31.6112 113.866 31.4555V27.9491C113.866 27.7902 113.909 27.767 114.044 27.767H114.106C114.258 27.767 114.288 27.7968 114.288 27.9491V29.2106C114.39 29.085 114.521 28.9865 114.67 28.9236C114.819 28.8606 114.981 28.8353 115.142 28.8497C115.818 28.8497 116.161 29.1808 116.161 29.8199V31.4489C116.157 31.5979 116.128 31.631 115.979 31.631ZM115.036 29.2404C115.537 29.2404 115.742 29.4225 115.742 29.8662V31.4489C115.742 31.5913 115.768 31.6178 115.91 31.6178H115.979C116.121 31.6178 116.148 31.5913 116.148 31.4489V29.8199C116.148 29.1841 115.818 28.8596 115.139 28.8596C114.976 28.8434 114.811 28.8693 114.661 28.9348C114.511 29.0003 114.38 29.1032 114.281 29.2338V27.9359C114.281 27.7902 114.258 27.7637 114.113 27.7637H114.05C113.918 27.7637 113.882 27.7835 113.882 27.9359V31.4357C113.882 31.5814 113.922 31.6045 114.05 31.6045H114.113C114.258 31.6045 114.281 31.5781 114.281 31.4357V29.949C114.265 29.4556 114.502 29.2404 115.036 29.2404Z" fill="#009EDB"/>
<path d="M116.737 30.5327V30.0228C116.737 29.2513 117.133 28.8672 117.941 28.8672C118.548 28.8672 118.894 29.0692 119.049 29.4665C119.134 29.4268 119.214 29.3208 119.214 29.0261C119.214 28.9433 119.243 28.9202 119.339 28.9202H119.435C119.527 28.9202 119.547 28.9433 119.547 29.0261C119.547 29.4731 119.372 29.6883 119.118 29.7645C119.125 29.8504 119.125 29.9368 119.118 30.0228V30.5327C119.118 31.3053 118.72 31.6904 117.924 31.6882C117.087 31.675 116.737 31.2744 116.737 30.5327ZM118.716 30.0228C118.716 29.493 118.528 29.2546 117.931 29.2546C117.334 29.2546 117.136 29.493 117.136 30.0228V30.5327C117.136 31.0624 117.334 31.3008 117.931 31.3008C118.528 31.3008 118.716 31.0624 118.716 30.5327V30.0228Z" fill="#009EDB"/>
<path d="M117.941 31.6818C117.113 31.6818 116.731 31.3143 116.731 30.5196V30.0097C116.719 29.8517 116.74 29.6929 116.791 29.5432C116.843 29.3934 116.924 29.2559 117.031 29.1389C117.285 28.9265 117.611 28.822 117.941 28.8475C118.538 28.8475 118.891 29.0363 119.052 29.4435C119.158 29.3939 119.207 29.2548 119.207 29.0131C119.207 28.927 119.24 28.9005 119.339 28.9005H119.431C119.527 28.9005 119.553 28.927 119.553 29.0131C119.553 29.4137 119.408 29.6753 119.125 29.7548C119.135 29.8393 119.141 29.9245 119.141 30.0097V30.5329C119.141 31.2911 118.739 31.6818 117.941 31.6818ZM117.941 28.8575C117.615 28.8336 117.293 28.9368 117.041 29.1455C116.935 29.2614 116.853 29.3978 116.802 29.5464C116.75 29.6951 116.729 29.8527 116.741 30.0097V30.5329C116.741 31.3176 117.123 31.6851 117.941 31.6851C118.264 31.7092 118.583 31.6058 118.831 31.3971C118.937 31.2812 119.019 31.1448 119.07 30.9962C119.122 30.8475 119.143 30.6899 119.131 30.5329V30.023C119.132 29.9365 119.125 29.8501 119.111 29.7647C119.392 29.6786 119.537 29.4336 119.537 29.033C119.537 28.9535 119.514 28.9336 119.425 28.9336H119.332C119.24 28.9336 119.214 28.9568 119.214 29.033C119.214 29.2813 119.158 29.427 119.046 29.4766C118.881 29.0495 118.551 28.8575 117.941 28.8575ZM117.941 31.2911C117.364 31.2911 117.14 31.0759 117.14 30.5196V30.0097C117.14 29.4468 117.357 29.2382 117.941 29.2382C118.525 29.2382 118.732 29.4468 118.732 30.0097V30.5329C118.732 31.0825 118.518 31.2911 117.941 31.2911ZM117.941 29.2482C117.364 29.2482 117.153 29.4535 117.153 30.0097V30.5329C117.153 31.0792 117.374 31.2944 117.941 31.2944C118.508 31.2944 118.719 31.0891 118.719 30.5329V30.023C118.719 29.4535 118.508 29.2482 117.941 29.2482Z" fill="#009EDB"/>
<path d="M120.13 31.4476C120.13 31.5933 120.1 31.6231 119.952 31.6231H119.892C119.754 31.6231 119.714 31.5933 119.714 31.4476V29.8715C119.714 29.1828 120.1 28.8418 120.862 28.8418C121.624 28.8418 122.003 29.2027 122.003 29.8715V31.4344C122.003 31.5801 121.976 31.6099 121.828 31.6099H121.762C121.614 31.6099 121.584 31.5801 121.584 31.4344V29.8715C121.584 29.4279 121.416 29.2292 120.862 29.2292C120.308 29.2292 120.13 29.4345 120.13 29.8715V31.4476Z" fill="#009EDB"/>
<path d="M121.829 31.6293H121.763C121.611 31.6293 121.582 31.5962 121.582 31.4472V29.8711C121.582 29.4075 121.387 29.2353 120.863 29.2353C120.338 29.2353 120.134 29.4141 120.134 29.8711V31.4339C120.134 31.5829 120.104 31.616 119.953 31.616H119.893C119.758 31.616 119.712 31.5895 119.712 31.4339V29.8711C119.712 29.1824 120.098 28.8347 120.863 28.8347C121.178 28.8073 121.492 28.9021 121.74 29.0996C121.837 29.2015 121.911 29.3231 121.958 29.4561C122.004 29.5891 122.022 29.7306 122.01 29.8711V31.4339C122.01 31.5962 121.981 31.6293 121.829 31.6293ZM120.859 29.2387C121.39 29.2387 121.588 29.4108 121.588 29.9009V31.4637C121.588 31.6061 121.615 31.6326 121.76 31.6326H121.826C121.971 31.6326 121.994 31.6061 121.994 31.4637V29.8711C122.005 29.7327 121.988 29.5934 121.942 29.4622C121.897 29.331 121.824 29.2109 121.73 29.1095C121.484 28.9122 121.173 28.8173 120.859 28.8446C120.553 28.8217 120.249 28.9124 120.005 29.0996C119.905 29.2001 119.828 29.321 119.779 29.4541C119.729 29.5872 119.709 29.7294 119.719 29.8711V31.4339C119.719 31.5796 119.758 31.6028 119.89 31.6028H119.949C120.094 31.6028 120.121 31.5763 120.121 31.4339V29.8711C120.124 29.4175 120.332 29.2387 120.859 29.2387Z" fill="#009EDB"/>
</svg>
