<?xml version="1.0" encoding="UTF-8"?>
<svg id="Layer_1" data-name="Layer 1" xmlns="http://www.w3.org/2000/svg" version="1.1" viewBox="0 0 200 40">
  <defs>
    <style>
      .cls-1 {
        fill: #000;
        stroke-width: 0px;
      }
    </style>
  </defs>
  <g>
    <polygon class="cls-1" points="43.2 3 46.7 3 46.7 21.3 56.7 21.3 56.7 24.7 43.2 24.7 43.2 3"/>
    <path class="cls-1" d="M59.5,9.5h3.4v15.3h-3.4v-15.3ZM61.1,6.1c-.6,0-1.1-.2-1.6-.6-.4-.4-.7-1-.7-1.6s.2-1.1.7-1.6c.4-.4,1-.7,1.6-.7s1.2.2,1.6.7c.4.4.6.9.6,1.6s-.2,1.2-.6,1.6c-.4.4-1,.6-1.6.6Z"/>
    <path class="cls-1" d="M74.2,21.9c.7,0,1.3-.1,1.8-.4.6-.2,1.1-.6,1.5-1,.4-.4.7-1,.9-1.6s.3-1.2.3-1.9-.1-1.3-.3-1.9-.5-1.1-.9-1.5c-.4-.4-.9-.8-1.5-1-.5-.2-1.2-.4-1.8-.4s-1.3.1-1.9.4c-.6.2-1.1.6-1.5,1-.4.4-.7.9-.9,1.5s-.3,1.2-.3,1.9.1,1.3.3,1.9.5,1.1.9,1.6c.4.4.9.8,1.5,1,.6.2,1.2.4,1.9.4ZM74.2,25c-1.1,0-2.2-.2-3.2-.6-1-.4-1.8-1-2.5-1.7-.7-.7-1.3-1.6-1.7-2.5-.4-1-.6-2-.6-3.1s.2-2.1.6-3.1c.4-1,1-1.8,1.7-2.5.7-.7,1.6-1.3,2.5-1.7,1-.4,2-.6,3.2-.6s2.2.2,3.1.6c1,.4,1.8,1,2.5,1.7.7.7,1.3,1.6,1.7,2.5.4,1,.6,2,.6,3.1s-.2,2.1-.6,3.1c-.4,1-1,1.8-1.7,2.5s-1.6,1.3-2.5,1.7-2,.6-3.1.6Z"/>
    <path class="cls-1" d="M93.3,22c.7,0,1.3-.1,1.8-.4.6-.3,1-.6,1.4-1,.4-.4.7-1,.9-1.6s.3-1.2.3-1.9-.1-1.3-.3-1.9c-.2-.6-.5-1.1-.9-1.5-.4-.4-.9-.8-1.4-1-.5-.3-1.2-.4-1.8-.4s-1.3.1-1.9.4c-.6.2-1.1.6-1.5,1-.4.4-.7.9-.9,1.5-.2.6-.3,1.2-.3,1.9s.1,1.3.3,1.9.5,1.1.9,1.6c.4.4.9.8,1.5,1,.6.2,1.2.4,1.9.4ZM93.9,25c-1.1,0-2.1-.2-3-.7-.9-.5-1.5-1-2-1.6v2h-3.4V1.8h3.4v9.7c.4-.6,1.1-1.2,2-1.6.9-.5,1.9-.7,3-.7s2,.2,2.9.6c.9.4,1.7,1,2.4,1.7.7.7,1.2,1.5,1.5,2.5.4,1,.6,2,.6,3.1s-.2,2.1-.6,3.1c-.4,1-.9,1.8-1.5,2.5-.7.7-1.4,1.3-2.4,1.7-.9.4-1.9.6-2.9.6Z"/>
    <path class="cls-1" d="M111.6,22c.7,0,1.3-.1,1.8-.4.6-.3,1-.6,1.4-1,.4-.4.7-1,.9-1.6s.3-1.2.3-1.9-.1-1.3-.3-1.9-.5-1.1-.9-1.5c-.4-.4-.9-.8-1.4-1-.5-.3-1.2-.4-1.8-.4s-1.3.1-1.9.4c-.5.2-1,.6-1.4,1-.4.4-.7.9-.9,1.5s-.3,1.2-.3,1.9.1,1.3.3,1.9.5,1.1.9,1.6c.4.4.9.8,1.4,1,.6.2,1.2.4,1.9.4ZM110.9,25c-1,0-2-.2-2.9-.6-.9-.4-1.7-1-2.3-1.7-.7-.7-1.2-1.6-1.6-2.5-.4-1-.5-2-.5-3.1s.2-2.1.5-3.1c.4-1,.9-1.8,1.6-2.5.7-.7,1.4-1.3,2.3-1.7.9-.4,1.9-.6,2.9-.6s2.1.2,2.9.7c.9.5,1.5,1,2,1.6v-2h3.4v15.3h-3.4v-2c-.4.6-1.1,1.2-2,1.6-.9.5-1.8.7-2.9.7Z"/>
    <path class="cls-1" d="M123.7,9.5h3.4v2.1c.5-.8,1.1-1.4,1.9-1.8.8-.4,1.7-.6,2.7-.6s1.7.2,2.4.5c.7.3,1.4.7,1.9,1.3.5.5.9,1.2,1.2,2,.3.8.4,1.6.4,2.6v9.2h-3.4v-8.6c0-1.2-.3-2.2-.9-2.8-.6-.7-1.3-1-2.3-1s-2.1.4-2.8,1.3c-.8.8-1.1,2.1-1.1,3.7v7.5h-3.4v-15.3Z"/>
    <polygon class="cls-1" points="145.2 17.4 145.2 24.7 141.9 24.7 141.9 1.8 145.2 1.8 145.2 15.3 151.1 9.5 155.3 9.5 148.5 16.3 156.8 24.7 152.5 24.7 145.2 17.4"/>
  </g>
  <g>
    <path class="cls-1" d="M118.2,36.5c-.3,0-.7,0-1-.2s-.5-.4-.7-.6v.8h-.6v-6.7h.6v3c.2-.3.4-.5.7-.6.3-.2.6-.2,1-.2.6,0,1.2.2,1.6.7.4.5.7,1,.7,1.7s-.2,1.2-.7,1.7-1,.7-1.6.7ZM116.9,35.4c.3.3.7.5,1.2.5s.9-.2,1.2-.5c.3-.3.5-.8.5-1.2s-.2-.9-.5-1.2c-.3-.3-.7-.5-1.2-.5s-.9.2-1.2.5c-.3.3-.5.8-.5,1.2s.2.9.5,1.2Z"/>
    <path class="cls-1" d="M122.6,38.3h-.7l1-2.1-2-4.3h.7l1.7,3.6,1.7-3.6h.7l-3,6.4Z"/>
  </g>
  <g>
    <path class="cls-1" d="M134.6,29.1c-2.8,0-5,2.1-5,4.6s2.3,4.6,5,4.6,5-2.1,5-4.6-2.3-4.6-5-4.6M134.6,36.7c-1.4,0-2.6-1.3-2.6-2.9s1.2-2.9,2.6-2.9,2.6,1.3,2.6,2.9-1.2,2.9-2.6,2.9"/>
    <path class="cls-1" d="M156.8,35.6c0-.3,0-.7-.2-1-.1-.3-.4-.6-.7-.8-.2-.1-.3-.2-.5-.3.3-.2.6-.4.8-.7.3-.4.4-.9.4-1.4,0-.7-.3-1.2-.7-1.6-.4-.4-1.1-.6-1.9-.6h-5v8.8h4.4c.8,0,1.4,0,2-.3.6-.2,1-.5,1.2-.9.3-.4.4-.9.4-1.4M152.7,30.7c1.1,0,1.5.2,1.5,1s-.4,1-1.4,1h-.6s-.6,1.7-.6,1.7h1.3c1.1,0,1.7.4,1.7,1.2s-.6,1.2-1.7,1.2h-1.5v-6.1h1.4Z"/>
    <path class="cls-1" d="M147.7,36c-.6.4-1.3.7-2.1.7-1.7,0-3.2-1.3-3.2-3s1.4-2.9,3.2-2.9,1.5.3,2.1.7v-1.8c-.7-.4-1.6-.6-2.5-.6-2.8,0-5.1,2.1-5.1,4.6s2.3,4.6,5.1,4.6,1.8-.2,2.5-.6v-1.8Z"/>
  </g>
</svg>