<?xml version="1.0" encoding="UTF-8"?>
<svg id="Layer_1" data-name="Layer 1" xmlns="http://www.w3.org/2000/svg" version="1.1" xmlns:xlink="http://www.w3.org/1999/xlink" viewBox="0 0 160 40">
  <defs>
    <style>
      .cls-1 {
        fill: url(#linear-gradient);
      }

      .cls-1, .cls-2, .cls-3, .cls-4, .cls-5 {
        stroke-width: 0px;
      }

      .cls-2 {
        fill: #00502f;
      }

      .cls-3 {
        fill: none;
      }

      .cls-4 {
        fill: #8dc63f;
      }

      .cls-5 {
        fill: url(#linear-gradient-2);
      }

      .cls-6 {
        clip-path: url(#clippath);
      }
    </style>
    <clipPath id="clippath">
      <rect class="cls-3" width="160" height="40"/>
    </clipPath>
    <linearGradient id="linear-gradient" x1="130" y1="25.7" x2="158.8" y2="25.7" gradientTransform="translate(0 34) scale(1 -1)" gradientUnits="userSpaceOnUse">
      <stop offset="0" stop-color="#00502f"/>
      <stop offset=".9" stop-color="#8dc63f"/>
      <stop offset="1" stop-color="#8dc63f"/>
    </linearGradient>
    <linearGradient id="linear-gradient-2" x1="124.4" y1="33.1" x2="156" y2="6.7" gradientTransform="translate(0 34) scale(1 -1)" gradientUnits="userSpaceOnUse">
      <stop offset="0" stop-color="#8dc63f"/>
      <stop offset="0" stop-color="#8dc63f"/>
      <stop offset=".7" stop-color="#337a34"/>
      <stop offset="1" stop-color="#00502f"/>
    </linearGradient>
  </defs>
  <g class="cls-6">
    <g>
      <path class="cls-1" d="M133.7.5h0,0,0ZM141.2,0c-2.7,0-5.2.2-7.6.5h0,0c-2.9.5-3.5,2.1-3.5,2.1-.7,1.5.7,5.5,3.5,10.3.8-.1,5.6-.8,10.9-.7,5.2.1,8.2.8,9.6,1.6,1.3.8.9,2.4.8,2.8,1-1.7,3-5.8,3.7-8.3.6-2.5,0-3.5,0-3.8-.6-1.4-1.7-2-1.9-2.2-2.8-1.4-7.4-2-10.4-2.2-1.6-.1-3.2-.2-4.9-.2h-.1Z"/>
      <path class="cls-5" d="M133.7.5h0c-8,1.1-11.5,3.6-12.9,4.9,0,0-1.6,1.5-1.5,3.9.1,3.1,2,7.4,2.8,9.1,1.8,3.7,4.3,7.3,5.1,8.3,1.4,1.9,3.8,4.9,6.3,7.2,1.9,1.8,4.6,4,6.7,5.1,1.2.6,2.7.6,2.8.6.3,0,2.2,0,3.8-1.6,2-1.8,4-5.3,5.4-7.7,2.1-3.6,3.9-7.8,4.7-10.1.6-1.7,2.5-7,3-10.8.3-2.1-.3-3.8-.5-4.2-.3-.7-.7-1.3-1.2-1.8-.2-.2-.5-.5-.9-.7-.4-.3-.8-.4-.8-.4.3.1,1.4.8,1.9,2.2.1.3.6,1.4,0,3.8-.6,2.5-2.7,6.5-3.6,8.3h0c-.2.4-5.9,10.3-8.5,10.3-2.7,0-8.6-7.9-10-10-1-1.4-1.8-2.7-2.6-4-2.9-4.8-4.3-8.8-3.5-10.3,0,0,.6-1.6,3.5-2.1h0ZM133.7.5h0,0,0Z"/>
      <path class="cls-4" d="M83.3,17.4v22.2h-5.9l-9.6-16.1v16.1h-4.8v-22.2h5.9l9.6,16.1v-16.1h4.8Z"/>
      <path class="cls-4" d="M101.3,38.8c-2.5.5-5.3,1.1-7.6,1.1-6.6,0-8.3-3.5-8.3-8.2s3.2-8.2,8.1-8.2,8.2,2.4,8.2,7.7v1.8h-11.5c.1,2.9,1,4.2,3.5,4.2s5.3-.7,7-1.1l.5,2.7h0ZM97,30.3c-.1-3.2-1.1-4.1-3.4-4.1s-3.1,1-3.3,4.1h6.6Z"/>
      <path class="cls-4" d="M120.7,31.4c0,5.5-1.7,8.5-8.4,8.5s-8.5-2.6-8.5-8.5,2.8-7.9,8.5-7.9,8.4,2.4,8.4,8ZM115.9,31.4c0-4-1.4-5.3-3.6-5.3s-3.8.9-3.8,5.2.6,5.8,3.8,5.8,3.6-1.5,3.6-5.8Z"/>
      <path class="cls-2" d="M52,17.4c5.1,0,8.2,2,8.2,6s-.9,3.8-2.2,4.7c1.6.8,3.1,2.2,3.1,4.9,0,5.1-3.7,6.7-8.5,6.7h-10v-22.3h9.4,0ZM47.3,20.6v6.3h5.1c2.3,0,3.1-.9,3.1-3.4s-.8-2.8-3.5-2.8h-4.7ZM47.3,29.9v6.7h5.3c2.5,0,3.7-.6,3.7-3.6s-2.3-3.1-4-3.1h-5.1Z"/>
      <path class="cls-2" d="M10.5,39.2c-1.5,0-2.6-.2-3.1-.3C1,29.1.1,19.8,0,17.5l4.4.6c.2,1.1.5,3.1.8,4.6,1.1,4.5,2.7,8.7,4.9,12.4l.5.9.5-.9c3.7-6.3,5.1-13.7,5.5-17l4.3-.6c0,.7-.1,1.9-.3,3-.7,4.5-2.4,11.3-7.1,18.4-1,.2-1.9.3-3,.3"/>
      <path class="cls-2" d="M40.5,39.1c-1.7.3-5.1.8-8.2.8-8.6,0-10.4-4.7-10.4-11.2s1.5-11.3,10.4-11.3,6.5.5,8.2.8l-.3,3.1c-2.2-.4-5.2-.8-7.9-.8-4.9,0-5.5,2.8-5.5,8.3s.8,8.1,5.5,8.1,5.9-.5,7.9-.8l.4,3.1h0Z"/>
    </g>
  </g>
</svg>