<svg width="512" height="162" viewBox="0 0 512 162" fill="none" xmlns="http://www.w3.org/2000/svg">
<g clip-path="url(#clip0_333_24996)">
<path d="M326.6 100C335.2 98.1 344.8 99.8 351.5 105.6C363.1 115.4 364 134.9 354.1 146.2C344.2 157.7 324.5 158.1 313.8 147.5C303.9 137.3 303.2 119.5 312.3 108.5C315.9 104.2 321.1 101.3 326.6 100ZM327.5 109.9C314.3 114 311.9 133.7 322.5 141.8C329.4 147.4 340.6 146.5 346.4 139.8C352.6 132.5 352.3 120.5 345.5 113.8C340.9 109.2 333.6 107.9 327.5 109.9Z" fill="#FCAF17"/>
<path d="M242 104.2C242.3 99.8 249.2 98.4 251.2 102.3C257.3 114.3 263.3 126.4 269.2 138.5C274.8 126.5 280.7 114.7 286.4 102.7C288.2 98.4 295.6 99.5 295.9 104.2C296.1 119.2 295.9 134.2 296 149.2C296.4 152.8 292.2 155.6 289 154.1C287 153.4 285.8 151.3 285.8 149.2C285.6 141.1 285.8 133 285.7 124.8C282.3 131.2 279.5 137.9 276.1 144.3C274.8 146.7 274.1 149.5 272.1 151.4C269.8 153.4 265.8 152.6 264.5 149.8C260.4 141.5 256.3 133.3 252.1 125C252 133.4 252.2 141.8 252 150.2C251.8 153.7 247.2 155.5 244.3 153.8C242.3 152.8 241.7 150.3 241.8 148.2C242 133.6 241.7 118.9 242 104.2Z" fill="#FCAF17"/>
<path d="M370.3 104.3C370.5 100 377 98.3 379.3 102C387.7 113.1 395.8 124.4 404.4 135.4C404.4 125.1 404.3 114.7 404.5 104.4C404.7 100.9 408.9 98.9 411.9 100.5C413.8 101.2 414.7 103.3 414.6 105.2C414.6 119.9 414.6 134.5 414.6 149.2C414.8 152.2 412 154.9 409 154.5C406 154.3 404.7 151.3 403 149.2C395.5 139.2 388.1 129 380.4 119.1C380.3 129.5 380.6 139.9 380.3 150.2C380.1 154.3 374 156.1 371.5 152.8C370 151.3 370.3 149.1 370.2 147.2C370.3 132.9 370.2 118.6 370.3 104.3Z" fill="#FCAF17"/>
<path d="M425.3 105.3C425 102.1 428 99.6 431.1 100C443.8 99.9 456.4 100 469.1 99.9C471.3 99.8 473.9 100.1 475.1 102.3C479.9 109.6 484.4 117.2 489.1 124.6C494.1 117.1 498.5 109.3 503.6 101.8C506 98.6 511.1 99.9 512.1 103.7V106C506.7 115.8 500 124.8 494.3 134.5C493.4 140 494.5 145.6 493.8 151.1C492.7 155.7 485.5 155.8 484.2 151.3C483.4 145.8 484.4 140.2 483.7 134.7C478.7 126.3 473.2 118.1 468 109.8C457.2 109.8 446.4 109.8 435.5 109.8C435.5 113.9 435.5 118.1 435.5 122.2C441.7 122.4 447.9 121.9 454.1 122.4C458.7 123.6 458.5 130.9 453.9 131.8C447.8 132.1 441.7 131.8 435.6 131.9C435.6 136.2 435.6 140.5 435.6 144.8C443.5 144.8 451.4 144.8 459.3 144.8C461 144.7 463 145.2 464 146.7C466.4 149.6 464.1 154.8 460.2 154.6C451.2 154.8 442.2 154.6 433.2 154.7C431.2 154.6 428.8 154.9 427.2 153.4C425.3 152 425.5 149.5 425.4 147.4C425.3 133.3 425.2 119.3 425.3 105.3Z" fill="#FCAF17"/>
<path d="M278.3 23.3C276.3 18.3 284.2 15.4 286.6 19.6C292.2 32.2 297 45.2 302.6 57.8C307.8 45.1 313.2 32.4 318.6 19.8C320.9 15.3 329.1 18.2 327 23.3C320.6 38.6 313.9 53.6 307.4 68.9C306.6 70.7 305.2 72.9 302.9 72.8C300.2 73.2 298.4 70.8 297.6 68.6C291.3 53.4 284.5 38.5 278.3 23.3Z" fill="#20409A"/>
<path d="M334.1 22.1999C334 17.7999 340.4 15.8999 342.7 19.5999C351.5 31.2999 360.2 43.0999 369 54.7999C369.3 43.5999 368.8 32.3999 369.2 21.2999C370.2 16.5999 377.8 16.5999 378.6 21.3999C379.1 35.6999 378.6 50.0999 378.8 64.4999C378.7 66.6999 379.1 69.1999 377.8 71.1999C375.9 73.4999 372 73.6999 370.2 71.1999C361.3 59.6999 353.1 47.5999 343.8 36.3999C343.6 47.0999 343.9 57.7999 343.7 68.4999C343.7 72.0999 339.2 74.1999 336.3 72.2999C334.2 71.0999 333.9 68.5999 333.9 66.3999C334.1 51.4999 333.9 36.8999 334.1 22.1999Z" fill="#20409A"/>
<path d="M390.8 22.3001C390.7 19.1001 394 17.1001 397 17.7001C404.5 18.2001 413 16.1001 419.7 20.8001C429.8 27.6001 430.2 44.5001 420.1 51.5001C414.4 55.6001 407.2 54.7001 400.6 54.8001C400.6 59.3001 400.7 63.8001 400.6 68.3001C400.5 70.9001 397.9 73.4001 395.2 72.8001C392.4 72.8001 390.7 69.8001 390.9 67.3001C390.8 52.3001 390.7 37.3001 390.8 22.3001ZM400.5 26.9001C400.5 33.0001 400.5 39.1001 400.5 45.3001C404.7 45.0001 409.1 46.0001 413.1 44.5001C419.8 41.5001 419.4 30.5001 412.8 27.6001C408.8 26.3001 404.6 27.1001 400.5 26.9001Z" fill="#20409A"/>
<path d="M429 21.2999C429.3 18.8999 431.7 17.3999 434 17.5999C446 17.6999 458.1 17.3999 470.1 17.6999C474.5 18.1999 475 25.3999 470.7 26.5999C465.9 27.1999 461.1 26.6999 456.2 26.8999C456.2 40.6999 456.3 54.4999 456.2 68.2999C456.1 71.5999 452.1 73.8999 449.2 72.1999C447.2 71.3999 446.4 69.1999 446.5 67.1999C446.5 53.6999 446.5 40.2999 446.5 26.7999C442 26.6999 437.5 26.8999 433.1 26.6999C430.4 26.7999 428.2 23.8999 429 21.2999Z" fill="#20409A"/>
<path d="M13.9999 13.7C22.3999 5.20001 34.1999 0.400007 45.9999 6.77817e-06C58.6999 -0.399993 71.3999 4.50001 80.4999 13.4C89.7999 22.7 99.1999 32.1 108.5 41.4C110.4 43.4 112.5 45.2 114.2 47.3C98.2999 63 82.5999 78.9 66.7999 94.6C60.1999 101.1 53.7999 107.7 47.1999 114.1C37.9999 104.9 28.7999 95.7 19.4999 86.4C15.7999 82.7 11.9999 79.2 8.89986 74.9C1.59986 65 -1.40014 52 0.599862 39.7C2.19986 29.9 6.89986 20.6 13.9999 13.7Z" fill="#00BAF2"/>
<path d="M172.3 0.800075C183.8 -1.49992 196.2 0.900075 206.2 7.00008C215.5 12.8001 222.7 21.8001 226.1 32.2001C230.2 44.3001 229.1 58.0001 223.1 69.3001C220.8 73.7001 217.8 77.7001 214.2 81.2001C203.2 92.1001 192.3 103.1 181.4 114C180.9 113.5 180.3 113 179.8 112.5C157.9 90.8001 136.1 68.8001 114.3 47.0001C125.6 35.7001 136.8 24.4001 148.1 13.2001C154.7 6.90007 163.2 2.50008 172.3 0.800075Z" fill="#FCAF17"/>
<path d="M114.2 47.3002L114.3 47.2002C136.2 69.0002 157.9 90.9002 179.8 112.7C180.3 113.2 180.8 113.7 181.4 114.2C172.7 123 163.9 131.7 155.2 140.4C151.9 143.6 148.8 147 145.3 150.1C138.1 156.4 128.9 160.4 119.3 161.4C109.1 162.5 98.5001 160.2 89.8001 154.8C85.3001 152.1 81.4001 148.5 77.7001 144.8C67.5001 134.6 57.3001 124.4 47.1001 114.2C53.8001 107.8 60.2001 101.2 66.7001 94.7002C82.6001 78.9002 98.3001 63.0002 114.2 47.3002Z" fill="#20409A"/>
</g>
<defs>
<clipPath id="clip0_333_24996">
<rect width="512" height="161.6" fill="white"/>
</clipPath>
</defs>
</svg>
