<svg width="200" height="40" viewBox="0 0 200 40" fill="none" xmlns="http://www.w3.org/2000/svg">
<path fill-rule="evenodd" clip-rule="evenodd" d="M120.885 6.15417C114.094 6.15417 108.573 11.6786 108.573 18.4659V40.0001H114.738V29.1182C116.55 30.1688 118.645 30.7776 120.885 30.7776C127.676 30.7776 133.197 25.2531 133.197 18.4659C133.197 11.6786 127.672 6.15417 120.885 6.15417ZM120.885 24.613C117.497 24.613 114.738 21.8543 114.738 18.4659C114.738 15.0775 117.497 12.3187 120.885 12.3187C124.273 12.3187 127.032 15.0775 127.032 18.4659C127.032 21.8543 124.277 24.613 120.885 24.613ZM181.883 6.16118L175.326 21.4578L169.099 6.16118H162.44L171.913 29.4278L167.38 40.0001H174.091L188.594 6.16118H181.883ZM160.099 6.15417V24.6096H163.167V30.7776H160.986C158.512 30.7776 156.342 29.5043 155.079 27.5805C152.998 29.5565 150.247 30.7741 147.217 30.7741C140.746 30.7741 135.496 25.2705 135.496 18.4798C135.496 11.6891 140.742 6.18549 147.217 6.18549C149.714 6.18549 152.024 7.00997 153.924 8.405V6.15417H160.099ZM141.657 18.4763C141.657 21.8647 144.402 24.6096 147.791 24.6096C151.179 24.6096 153.924 21.8647 153.924 18.4763C153.924 15.0879 151.179 12.3431 147.791 12.3431C144.402 12.3431 141.657 15.0879 141.657 18.4763Z" fill="#00CF6A"/>
<path fill-rule="evenodd" clip-rule="evenodd" d="M36.2025 1.74987C36.7417 2.82832 36.6269 4.0981 35.9033 5.06175L21.2433 24.6095H36.6095V30.774H15.2353C14.0317 30.774 12.9463 30.1061 12.407 29.0277C11.8678 27.9492 11.9826 26.6794 12.7062 25.7158L27.3696 6.16455H12V0H33.3707C34.5778 0 35.6632 0.671421 36.2025 1.74987ZM79.3682 18.4659C79.3682 11.6786 84.8926 6.15417 91.6799 6.15417C98.4672 6.15417 103.992 11.6786 103.992 18.4659C103.992 25.2531 98.4672 30.7776 91.6799 30.7776C84.8926 30.7776 79.3682 25.2531 79.3682 18.4659ZM85.5327 18.4659C85.5327 21.8543 88.2915 24.613 91.6799 24.613C95.0718 24.613 97.827 21.8543 97.827 18.4659C97.827 15.0775 95.0718 12.3187 91.6799 12.3187C88.288 12.3187 85.5327 15.0775 85.5327 18.4659ZM63.5185 24.6096V6.15417H57.3436V8.405C55.4441 7.00997 53.1341 6.18549 50.6363 6.18549C44.1621 6.18549 38.916 11.6891 38.916 18.4798C38.916 25.2705 44.1656 30.7741 50.6363 30.7741C53.6664 30.7741 56.4182 29.5565 58.4985 27.5805C59.7614 29.5043 61.9322 30.7776 64.4057 30.7776H66.5869V24.6096H63.5185ZM51.2103 24.6096C47.8219 24.6096 45.0771 21.8647 45.0771 18.4763C45.0771 15.0879 47.8219 12.3431 51.2103 12.3431C54.5987 12.3431 57.3436 15.0879 57.3436 18.4763C57.3436 21.8647 54.5987 24.6096 51.2103 24.6096ZM75.1031 24.6025V0H68.9246V23.705C68.9246 27.6083 72.0869 30.774 75.9902 30.774H78.1923V24.6025H75.1031Z" fill="#0033C9"/>
</svg>
